<svg xmlns="http://www.w3.org/2000/svg" viewBox="0 0 269.01 313.13"><defs><style>.cls-1{fill:#fff;}.cls-2{font-size:9px;font-family:Lato-Black, Lato;font-weight:800;}.cls-3{letter-spacing:-0.02em;}.cls-4{letter-spacing:-0.01em;}.cls-5{letter-spacing:0em;}.cls-6{letter-spacing:-0.01em;}.cls-7{letter-spacing:-0.05em;}.cls-8{letter-spacing:-0.02em;}.cls-9{fill:red;stroke:#fff;stroke-miterlimit:10;stroke-width:0.5px;}.cls-10{font-size:12px;}.cls-10,.cls-17{font-family:MyriadPro-Regular, Myriad Pro;}.cls-11{letter-spacing:-0.03em;}.cls-12{letter-spacing:0.02em;}.cls-13{letter-spacing:0.01em;}.cls-14{letter-spacing:-0.01em;}.cls-15{fill:#4d4d4f;}.cls-16{fill:#d1d3d4;}.cls-17{font-size:8px;}</style></defs><g id="Use_me_to_change_size_of_background_box." data-name="Use me to change size of background box."><rect class="cls-1" x="-6.33" y="-15.76" width="284.04" height="345.58"/></g><g id="Use_me_to_draw_your_chart." data-name="Use me to draw your chart."><text class="cls-2" transform="translate(64.01 17.59)">Airline empl<tspan class="cls-3" x="49.06" y="0">o</tspan><tspan x="54.11" y="0">yme</tspan><tspan class="cls-4" x="71.46" y="0">n</tspan><tspan class="cls-5" x="76.53" y="0">t sin</tspan><tspan class="cls-6" x="93.61" y="0">c</tspan><tspan x="97.91" y="0">e </tspan><tspan class="cls-7" x="104.83" y="0">F</tspan><tspan x="109.52" y="0">ebruar</tspan><tspan class="cls-8" x="136.19" y="0">y</tspan></text><path class="cls-9" d="M26.24,54.6h4.82A3.17,3.17,0,0,1,34,56.81a1.41,1.41,0,0,1,.07.41V66a.86.86,0,0,1-.92.93,1.26,1.26,0,0,1-1.21-.62V58.58h-.53V78.29A1.32,1.32,0,0,1,30,79.76c-1.53,0-1.47-1.27-1.47-1.27V66.88h-.61"/><path class="cls-9" d="M26.24,54.6h-1a3.18,3.18,0,0,0-2.94,2.2,1.55,1.55,0,0,0-.07.43V66a.86.86,0,0,0,.92.93,1.26,1.26,0,0,0,1.21-.62V58.58h.53V78.29a1.32,1.32,0,0,0,1.41,1.47c1.53,0,1.47-1.27,1.47-1.27V66.88h.62"/><circle class="cls-9" cx="28.21" cy="51.44" r="2.5"/><path class="cls-9" d="M209.65,282.37h4.82a3.17,3.17,0,0,1,2.94,2.21,1.14,1.14,0,0,1,.07.41v8.76a.86.86,0,0,1-.92.93c-1,0-1.2-.62-1.2-.62v-7.71h-.53v19.71a1.32,1.32,0,0,1-1.41,1.47c-1.53,0-1.47-1.27-1.47-1.27V294.65h-.62"/><path class="cls-9" d="M209.65,282.37h-1a3.16,3.16,0,0,0-2.93,2.2,1.25,1.25,0,0,0-.07.43v8.75a.85.85,0,0,0,.91.93,1.26,1.26,0,0,0,1.21-.62v-7.71h.53v19.71a1.32,1.32,0,0,0,1.41,1.47c1.53,0,1.47-1.27,1.47-1.27V294.65h.62"/><circle class="cls-9" cx="211.62" cy="279.22" r="2.5"/><text class="cls-10" transform="translate(219.93 295.64)">= -1,000</text><text class="cls-10" transform="translate(22.67 281.22)"><tspan class="cls-11">F</tspan><tspan x="5.47" y="0">ebrua</tspan><tspan class="cls-12" x="34.63" y="0">r</tspan><tspan x="38.86" y="0">y 2020: 756,953</tspan></text><text class="cls-10" transform="translate(22.67 300.04)"><tspan class="cls-13">M</tspan><tspan x="9.72" y="0">a</tspan><tspan class="cls-14" x="15.5" y="0">r</tspan><tspan x="19.31" y="0">ch 2020: 755,027</tspan></text><path class="cls-9" d="M46.85,54.6h4.82a3.18,3.18,0,0,1,2.94,2.21,1.4,1.4,0,0,1,.06.41V66a.85.85,0,0,1-.91.93,1.26,1.26,0,0,1-1.21-.62V58.58H52V78.29a1.32,1.32,0,0,1-1.41,1.47c-1.53,0-1.47-1.27-1.47-1.27V66.88h-.62"/><path class="cls-9" d="M46.85,54.6h-1a3.17,3.17,0,0,0-2.94,2.2,1.25,1.25,0,0,0-.07.43V66a.86.86,0,0,0,.92.93c1,0,1.2-.62,1.2-.62V58.58h.53V78.29a1.33,1.33,0,0,0,1.41,1.47c1.53,0,1.47-1.27,1.47-1.27V66.88H49"/><circle class="cls-9" cx="48.82" cy="51.44" r="2.5"/><rect class="cls-15" x="40.26" y="35.15" width="24.79" height="3.69"/><rect class="cls-16" x="67.55" y="35.15" width="24.79" height="3.69"/><rect class="cls-16" x="94.83" y="35.15" width="24.79" height="3.69"/><rect class="cls-16" x="122.11" y="35.15" width="24.79" height="3.69"/><rect class="cls-16" x="149.39" y="35.15" width="24.79" height="3.69"/><rect class="cls-16" x="176.67" y="35.15" width="24.79" height="3.69"/><rect class="cls-16" x="203.95" y="35.15" width="24.79" height="3.69"/><text class="cls-17" transform="translate(42.21 32.18)"><tspan class="cls-13">M</tspan><tspan x="6.48" y="0">a</tspan><tspan class="cls-14" x="10.34" y="0">r</tspan><tspan x="12.87" y="0">ch</tspan></text></g></svg>