<svg xmlns="http://www.w3.org/2000/svg" viewBox="0 0 615.46 164.54"><defs><style>.cls-1{fill:#fff;}.cls-2,.cls-3{fill:none;stroke:#000;stroke-miterlimit:10;}.cls-3{stroke-width:0.5px;}</style></defs><g id="Use_me_to_change_size_of_background_box." data-name="Use me to change size of background box."><rect class="cls-1" x="-20.79" y="-64.25" width="686.91" height="451.04"/></g><g id="Use_me_to_draw_your_chart." data-name="Use me to draw your chart."><path class="cls-2" d="M13.54,83.85s0,8.88,19.39,14l17.21,6.35L61.41,108l15.43,2.57,20.18,2H503.9l14.7-1.25,5.08,3.23,31.78,46.73h37.45L573.79,98.53l29.8-14.68,1.07-1"/><line class="cls-2" x1="224.34" y1="112.51" x2="240.21" y2="158.01"/><line class="cls-2" x1="347.5" y1="112.51" x2="350.66" y2="151.54"/><path class="cls-2" d="M236.4,147.08s-18.66,2.26-20.24,0-6.33-12.81,0-28.51c0,0,.71-1.81,10.05-.7"/><path d="M217.55,145.08s5-11.34,0-22.68A31.89,31.89,0,0,0,217.55,145.08Z"/><path class="cls-2" d="M604.66,82.81l-1.07-1-29.8-14.68L592.91,4.39H555.46L523.68,51.12l-5.08,3.24L503.9,53.1H97l-20.18,2L61.41,57.65,50.14,61.39,32.93,67.74c-19.39,5.14-19.39,14-19.39,14v2.09"/><line class="cls-2" x1="224.34" y1="53.1" x2="240.21" y2="7.6"/><line class="cls-2" x1="347.5" y1="53.1" x2="350.66" y2="14.07"/><path class="cls-2" d="M236.4,18.53s-18.66-2.26-20.24,0-6.33,12.81,0,28.51c0,0,.71,1.81,10.05.7"/><path d="M217.55,20.53s5,11.34,0,22.68A31.89,31.89,0,0,1,217.55,20.53Z"/><polygon points="48.16 64.91 69.52 58.58 69.52 63.99 51.98 69.4 48.16 64.91"/><polygon points="48.16 99.52 69.52 105.85 69.52 100.44 51.98 95.03 48.16 99.52"/><polygon points="38.8 81.18 46.18 81.18 51.06 70.36 47.5 66.1 38.8 81.18"/><polygon points="38.8 82.81 46.18 82.81 51.06 93.62 47.5 97.88 38.8 82.81"/><path class="cls-2" d="M500.73,53.39a64.91,64.91,0,0,1,0,59.12"/><path class="cls-2" d="M105.21,53.29a64.91,64.91,0,0,0,0,59.12"/><polyline class="cls-3" points="519.66 101.26 552.39 97.25 571.97 140.57 552.19 150.07 519.66 101.26"/><line class="cls-3" x1="581.86" y1="160.52" x2="573.16" y2="142.75"/><line class="cls-3" x1="563.47" y1="103.78" x2="575.73" y2="137.41"/><polyline class="cls-3" points="519.22 63.28 552.39 67.28 571.97 23.96 552.19 14.47 519.22 63.28"/><line class="cls-3" x1="581.86" y1="4.01" x2="573.16" y2="21.79"/><line class="cls-3" x1="563.47" y1="60.76" x2="575.73" y2="27.13"/><polyline class="cls-3" points="517.48 66.23 593.83 78.5 593.83 86.67"/><polyline class="cls-3" points="517.48 98.84 593.83 86.58 593.83 78.4"/></g></svg>