<svg xmlns="http://www.w3.org/2000/svg" viewBox="0 0 269.01 313.13"><defs><style>.cls-1{fill:#fff;}.cls-2{font-size:9px;font-family:Lato-Black, Lato;font-weight:800;}.cls-3{letter-spacing:-0.02em;}.cls-4{letter-spacing:-0.01em;}.cls-5{letter-spacing:0em;}.cls-6{letter-spacing:-0.01em;}.cls-7{letter-spacing:-0.05em;}.cls-8{letter-spacing:-0.02em;}.cls-9{fill:red;stroke:#fff;stroke-miterlimit:10;stroke-width:0.5px;}.cls-10,.cls-13{font-size:12px;}.cls-10,.cls-13,.cls-18{font-family:MyriadPro-Regular, Myriad Pro;}.cls-11{letter-spacing:-0.03em;}.cls-12{letter-spacing:0.02em;}.cls-13,.cls-19{letter-spacing:0.01em;}.cls-14{letter-spacing:0em;}.cls-15{letter-spacing:-0.01em;}.cls-16{fill:#d1d3d4;}.cls-17{fill:#4d4d4f;}.cls-18{font-size:8px;}.cls-20{letter-spacing:0em;}.cls-21{letter-spacing:0em;}</style></defs><g id="Use_me_to_change_size_of_background_box." data-name="Use me to change size of background box."><rect class="cls-1" x="-6.33" y="-15.76" width="284.04" height="345.58"/></g><g id="Use_me_to_draw_your_chart." data-name="Use me to draw your chart."><text class="cls-2" transform="translate(64.01 17.59)">Airline empl<tspan class="cls-3" x="49.06" y="0">o</tspan><tspan x="54.11" y="0">yme</tspan><tspan class="cls-4" x="71.46" y="0">n</tspan><tspan class="cls-5" x="76.53" y="0">t sin</tspan><tspan class="cls-6" x="93.61" y="0">c</tspan><tspan x="97.91" y="0">e </tspan><tspan class="cls-7" x="104.83" y="0">F</tspan><tspan x="109.52" y="0">ebruar</tspan><tspan class="cls-8" x="136.19" y="0">y</tspan></text><path class="cls-9" d="M26.24,54.6h4.82A3.17,3.17,0,0,1,34,56.81a1.41,1.41,0,0,1,.07.41V66a.86.86,0,0,1-.92.93,1.26,1.26,0,0,1-1.21-.62V58.58h-.53V78.29A1.32,1.32,0,0,1,30,79.76c-1.53,0-1.47-1.27-1.47-1.27V66.88h-.61"/><path class="cls-9" d="M26.24,54.6h-1a3.18,3.18,0,0,0-2.94,2.2,1.55,1.55,0,0,0-.07.43V66a.86.86,0,0,0,.92.93,1.26,1.26,0,0,0,1.21-.62V58.58h.53V78.29a1.32,1.32,0,0,0,1.41,1.47c1.53,0,1.47-1.27,1.47-1.27V66.88h.62"/><circle class="cls-9" cx="28.21" cy="51.44" r="2.5"/><path class="cls-9" d="M209.65,282.37h4.82a3.17,3.17,0,0,1,2.94,2.21,1.14,1.14,0,0,1,.07.41v8.76a.86.86,0,0,1-.92.93c-1,0-1.2-.62-1.2-.62v-7.71h-.53v19.71a1.32,1.32,0,0,1-1.41,1.47c-1.53,0-1.47-1.27-1.47-1.27V294.65h-.62"/><path class="cls-9" d="M209.65,282.37h-1a3.16,3.16,0,0,0-2.93,2.2,1.25,1.25,0,0,0-.07.43v8.75a.85.85,0,0,0,.91.93,1.26,1.26,0,0,0,1.21-.62v-7.71h.53v19.71a1.32,1.32,0,0,0,1.41,1.47c1.53,0,1.47-1.27,1.47-1.27V294.65h.62"/><circle class="cls-9" cx="211.62" cy="279.22" r="2.5"/><text class="cls-10" transform="translate(219.93 295.64)">= -1,000</text><text class="cls-10" transform="translate(22.67 281.22)"><tspan class="cls-11">F</tspan><tspan x="5.47" y="0">ebrua</tspan><tspan class="cls-12" x="34.63" y="0">r</tspan><tspan x="38.86" y="0">y 2020: 756,953</tspan></text><text class="cls-13" transform="translate(22.67 300.04)">S<tspan class="cls-14" x="5.99" y="0">ep</tspan><tspan class="cls-15" x="18.83" y="0">t</tspan><tspan class="cls-14" x="22.73" y="0">ember 2020: 702,068</tspan></text><path class="cls-9" d="M46.85,54.6h4.82a3.18,3.18,0,0,1,2.94,2.21,1.4,1.4,0,0,1,.06.41V66a.85.85,0,0,1-.91.93,1.26,1.26,0,0,1-1.21-.62V58.58H52V78.29a1.32,1.32,0,0,1-1.41,1.47c-1.53,0-1.47-1.27-1.47-1.27V66.88h-.62"/><path class="cls-9" d="M46.85,54.6h-1a3.17,3.17,0,0,0-2.94,2.2,1.25,1.25,0,0,0-.07.43V66a.86.86,0,0,0,.92.93c1,0,1.2-.62,1.2-.62V58.58h.53V78.29a1.33,1.33,0,0,0,1.41,1.47c1.53,0,1.47-1.27,1.47-1.27V66.88H49"/><circle class="cls-9" cx="48.82" cy="51.44" r="2.5"/><path class="cls-9" d="M67.52,54.57h4.82a3.17,3.17,0,0,1,2.94,2.21,1.14,1.14,0,0,1,.07.41V66a.85.85,0,0,1-.92.92c-1,0-1.2-.62-1.2-.62v-7.7H72.7v19.7a1.32,1.32,0,0,1-1.41,1.47c-1.53,0-1.47-1.26-1.47-1.26V66.85H69.2"/><path class="cls-9" d="M67.52,54.57h-1a3.16,3.16,0,0,0-2.93,2.21,1.2,1.2,0,0,0-.07.42V66a.84.84,0,0,0,.91.92,1.26,1.26,0,0,0,1.21-.62v-7.7h.53v19.7a1.32,1.32,0,0,0,1.41,1.47c1.53,0,1.47-1.26,1.47-1.26V66.85h.62"/><circle class="cls-9" cx="69.49" cy="51.42" r="2.5"/><path class="cls-9" d="M88.13,54.57H93a3.17,3.17,0,0,1,2.94,2.21,1.41,1.41,0,0,1,.07.41V66a.85.85,0,0,1-.92.92,1.26,1.26,0,0,1-1.21-.62v-7.7H93.3v19.7a1.32,1.32,0,0,1-1.41,1.47c-1.53,0-1.47-1.26-1.47-1.26V66.85h-.61"/><path class="cls-9" d="M88.13,54.57h-1a3.16,3.16,0,0,0-2.93,2.21,1.2,1.2,0,0,0-.08.42V66a.85.85,0,0,0,.92.92,1.26,1.26,0,0,0,1.21-.62v-7.7h.53v19.7a1.32,1.32,0,0,0,1.41,1.47c1.53,0,1.47-1.26,1.47-1.26V66.85h.62"/><circle class="cls-9" cx="90.1" cy="51.42" r="2.5"/><path class="cls-9" d="M108.74,54.57h4.82a3.17,3.17,0,0,1,2.94,2.21,1.4,1.4,0,0,1,.06.41V66a.84.84,0,0,1-.91.92,1.26,1.26,0,0,1-1.21-.62v-7.7h-.53v19.7a1.32,1.32,0,0,1-1.41,1.47c-1.53,0-1.47-1.26-1.47-1.26V66.85h-.62"/><path class="cls-9" d="M108.74,54.57h-1a3.17,3.17,0,0,0-2.94,2.21,1.48,1.48,0,0,0-.07.42V66a.85.85,0,0,0,.92.92c1,0,1.2-.62,1.2-.62v-7.7h.53v19.7a1.33,1.33,0,0,0,1.41,1.47c1.53,0,1.48-1.26,1.48-1.26V66.85h.61"/><circle class="cls-9" cx="110.71" cy="51.42" r="2.5"/><path class="cls-9" d="M129.34,54.57h4.83a3.16,3.16,0,0,1,2.93,2.21,1.14,1.14,0,0,1,.07.41V66a.85.85,0,0,1-.92.92c-1,0-1.2-.62-1.2-.62v-7.7h-.53v19.7a1.32,1.32,0,0,1-1.41,1.47c-1.53,0-1.47-1.26-1.47-1.26V66.85H131"/><path class="cls-9" d="M129.34,54.57h-1a3.16,3.16,0,0,0-2.93,2.21,1.2,1.2,0,0,0-.07.42V66a.85.85,0,0,0,.92.92c1,0,1.2-.62,1.2-.62v-7.7H128v19.7a1.32,1.32,0,0,0,1.41,1.47c1.53,0,1.47-1.26,1.47-1.26V66.85h.62"/><circle class="cls-9" cx="131.31" cy="51.42" r="2.5"/><path class="cls-9" d="M150,54.57h4.82a3.17,3.17,0,0,1,2.94,2.21,1.14,1.14,0,0,1,.07.41V66a.85.85,0,0,1-.92.92c-1,0-1.2-.62-1.2-.62v-7.7h-.53v19.7a1.33,1.33,0,0,1-1.41,1.47c-1.53,0-1.48-1.26-1.48-1.26V66.85h-.61"/><path class="cls-9" d="M150,54.57h-1a3.16,3.16,0,0,0-2.93,2.21,1.2,1.2,0,0,0-.07.42V66a.84.84,0,0,0,.91.92,1.26,1.26,0,0,0,1.21-.62v-7.7h.53v19.7A1.32,1.32,0,0,0,150,79.73c1.53,0,1.47-1.26,1.47-1.26V66.85h.62"/><circle class="cls-9" cx="151.92" cy="51.42" r="2.5"/><path class="cls-9" d="M191.17,54.57H196a3.16,3.16,0,0,1,2.93,2.21,1.14,1.14,0,0,1,.07.41V66a.84.84,0,0,1-.91.92,1.26,1.26,0,0,1-1.21-.62v-7.7h-.53v19.7a1.32,1.32,0,0,1-1.41,1.47c-1.53,0-1.47-1.26-1.47-1.26V66.85h-.62"/><path class="cls-9" d="M191.17,54.57h-1a3.17,3.17,0,0,0-2.94,2.21,1.2,1.2,0,0,0-.07.42V66a.85.85,0,0,0,.92.92c1,0,1.2-.62,1.2-.62v-7.7h.53v19.7a1.32,1.32,0,0,0,1.41,1.47c1.53,0,1.47-1.26,1.47-1.26V66.85h.62"/><circle class="cls-9" cx="193.14" cy="51.42" r="2.5"/><path class="cls-9" d="M232.38,54.57h4.82a3.17,3.17,0,0,1,2.94,2.21,1.41,1.41,0,0,1,.07.41V66a.85.85,0,0,1-.92.92c-1,0-1.2-.62-1.2-.62v-7.7h-.53v19.7a1.33,1.33,0,0,1-1.42,1.47c-1.52,0-1.47-1.26-1.47-1.26V66.85h-.61"/><path class="cls-9" d="M232.38,54.57h-1a3.16,3.16,0,0,0-2.93,2.21,1.2,1.2,0,0,0-.07.42V66a.84.84,0,0,0,.91.92,1.26,1.26,0,0,0,1.21-.62v-7.7h.53v19.7a1.32,1.32,0,0,0,1.41,1.47c1.53,0,1.47-1.26,1.47-1.26V66.85h.62"/><circle class="cls-9" cx="234.35" cy="51.42" r="2.5"/><path class="cls-9" d="M211.77,54.57h4.83a3.16,3.16,0,0,1,2.93,2.21,1.14,1.14,0,0,1,.07.41V66a.85.85,0,0,1-.92.92c-1,0-1.2-.62-1.2-.62v-7.7H217v19.7a1.32,1.32,0,0,1-1.41,1.47c-1.53,0-1.47-1.26-1.47-1.26V66.85h-.62"/><path class="cls-9" d="M211.77,54.57h-1a3.16,3.16,0,0,0-2.93,2.21,1.2,1.2,0,0,0-.07.42V66a.84.84,0,0,0,.91.92,1.26,1.26,0,0,0,1.21-.62v-7.7h.53v19.7a1.32,1.32,0,0,0,1.41,1.47c1.53,0,1.47-1.26,1.47-1.26V66.85H214"/><circle class="cls-9" cx="213.74" cy="51.42" r="2.5"/><path class="cls-9" d="M170.56,54.57h4.82a3.17,3.17,0,0,1,2.94,2.21,1.41,1.41,0,0,1,.07.41V66a.85.85,0,0,1-.92.92,1.26,1.26,0,0,1-1.21-.62v-7.7h-.53v19.7a1.32,1.32,0,0,1-1.41,1.47c-1.53,0-1.47-1.26-1.47-1.26V66.85h-.62"/><path class="cls-9" d="M170.56,54.57h-1a3.18,3.18,0,0,0-2.94,2.21,1.48,1.48,0,0,0-.07.42V66a.85.85,0,0,0,.92.92,1.26,1.26,0,0,0,1.21-.62v-7.7h.53v19.7a1.32,1.32,0,0,0,1.41,1.47c1.53,0,1.47-1.26,1.47-1.26V66.85h.61"/><circle class="cls-9" cx="172.53" cy="51.42" r="2.5"/><path class="cls-9" d="M26.31,91h4.82a3.15,3.15,0,0,1,2.94,2.2,1.51,1.51,0,0,1,.06.41v8.77a.84.84,0,0,1-.91.92,1.26,1.26,0,0,1-1.21-.62V95h-.53v19.7a1.32,1.32,0,0,1-1.41,1.47c-1.53,0-1.47-1.26-1.47-1.26V103.31H28"/><path class="cls-9" d="M26.31,91h-1a3.16,3.16,0,0,0-2.94,2.2,1.48,1.48,0,0,0-.07.42v8.76a.85.85,0,0,0,.92.92c1,0,1.2-.62,1.2-.62V95H25v19.7a1.33,1.33,0,0,0,1.42,1.47c1.53,0,1.47-1.26,1.47-1.26V103.31h.61"/><circle class="cls-9" cx="28.28" cy="87.88" r="2.5"/><path class="cls-9" d="M46.91,91h4.83a3.14,3.14,0,0,1,2.93,2.2,1.22,1.22,0,0,1,.07.41v8.77a.84.84,0,0,1-.91.92,1.26,1.26,0,0,1-1.21-.62V95h-.53v19.7a1.32,1.32,0,0,1-1.41,1.47c-1.53,0-1.47-1.26-1.47-1.26V103.31h-.62"/><path class="cls-9" d="M46.91,91h-1A3.14,3.14,0,0,0,43,93.24a1.2,1.2,0,0,0-.07.42v8.76a.85.85,0,0,0,.92.92c1,0,1.2-.62,1.2-.62V95h.53v19.7A1.32,1.32,0,0,0,47,116.19c1.53,0,1.47-1.26,1.47-1.26V103.31h.62"/><circle class="cls-9" cx="48.89" cy="87.88" r="2.5"/><path class="cls-9" d="M67.52,91h4.82a3.15,3.15,0,0,1,2.94,2.2,1.22,1.22,0,0,1,.07.41v8.77a.85.85,0,0,1-.92.92c-1,0-1.2-.62-1.2-.62V95H72.7v19.7a1.32,1.32,0,0,1-1.41,1.47c-1.53,0-1.47-1.26-1.47-1.26V103.31H69.2"/><path class="cls-9" d="M67.52,91h-1a3.14,3.14,0,0,0-2.93,2.2,1.2,1.2,0,0,0-.07.42v8.76a.84.84,0,0,0,.91.92,1.26,1.26,0,0,0,1.21-.62V95h.53v19.7a1.32,1.32,0,0,0,1.41,1.47c1.53,0,1.47-1.26,1.47-1.26V103.31h.62"/><circle class="cls-9" cx="69.49" cy="87.88" r="2.5"/><path class="cls-9" d="M88.13,91H93a3.15,3.15,0,0,1,2.94,2.2,1.53,1.53,0,0,1,.07.41v8.77a.85.85,0,0,1-.92.92,1.26,1.26,0,0,1-1.21-.62V95H93.3v19.7a1.32,1.32,0,0,1-1.41,1.47c-1.53,0-1.47-1.26-1.47-1.26V103.31h-.61"/><path class="cls-9" d="M88.13,91h-1a3.14,3.14,0,0,0-2.93,2.2,1.2,1.2,0,0,0-.08.42v8.76a.85.85,0,0,0,.92.92,1.26,1.26,0,0,0,1.21-.62V95h.53v19.7a1.32,1.32,0,0,0,1.41,1.47c1.53,0,1.47-1.26,1.47-1.26V103.31h.62"/><circle class="cls-9" cx="90.1" cy="87.88" r="2.5"/><path class="cls-9" d="M108.74,91h4.82a3.15,3.15,0,0,1,2.94,2.2,1.51,1.51,0,0,1,.06.41v8.77a.84.84,0,0,1-.91.92,1.26,1.26,0,0,1-1.21-.62V95h-.53v19.7a1.32,1.32,0,0,1-1.41,1.47c-1.53,0-1.47-1.26-1.47-1.26V103.31h-.62"/><path class="cls-9" d="M108.74,91h-1a3.15,3.15,0,0,0-2.94,2.2,1.48,1.48,0,0,0-.07.42v8.76a.85.85,0,0,0,.92.92c1,0,1.2-.62,1.2-.62V95h.53v19.7a1.33,1.33,0,0,0,1.41,1.47c1.53,0,1.48-1.26,1.48-1.26V103.31h.61"/><circle class="cls-9" cx="110.71" cy="87.88" r="2.5"/><path class="cls-9" d="M129.34,91h4.83a3.14,3.14,0,0,1,2.93,2.2,1.22,1.22,0,0,1,.07.41v8.77a.85.85,0,0,1-.92.92c-1,0-1.2-.62-1.2-.62V95h-.53v19.7a1.32,1.32,0,0,1-1.41,1.47c-1.53,0-1.47-1.26-1.47-1.26V103.31H131"/><path class="cls-9" d="M129.34,91h-1a3.14,3.14,0,0,0-2.93,2.2,1.2,1.2,0,0,0-.07.42v8.76a.85.85,0,0,0,.92.92c1,0,1.2-.62,1.2-.62V95H128v19.7a1.32,1.32,0,0,0,1.41,1.47c1.53,0,1.47-1.26,1.47-1.26V103.31h.62"/><circle class="cls-9" cx="131.31" cy="87.88" r="2.5"/><path class="cls-9" d="M150,91h4.82a3.15,3.15,0,0,1,2.94,2.2,1.22,1.22,0,0,1,.07.41v8.77a.85.85,0,0,1-.92.92c-1,0-1.2-.62-1.2-.62V95h-.53v19.7a1.33,1.33,0,0,1-1.41,1.47c-1.53,0-1.48-1.26-1.48-1.26V103.31h-.61"/><path class="cls-9" d="M150,91h-1a3.14,3.14,0,0,0-2.93,2.2,1.2,1.2,0,0,0-.07.42v8.76a.84.84,0,0,0,.91.92,1.26,1.26,0,0,0,1.21-.62V95h.53v19.7a1.32,1.32,0,0,0,1.41,1.47c1.53,0,1.47-1.26,1.47-1.26V103.31h.62"/><circle class="cls-9" cx="151.92" cy="87.88" r="2.5"/><path class="cls-9" d="M191.17,91H196a3.14,3.14,0,0,1,2.93,2.2,1.22,1.22,0,0,1,.07.41v8.77a.84.84,0,0,1-.91.92,1.26,1.26,0,0,1-1.21-.62V95h-.53v19.7a1.32,1.32,0,0,1-1.41,1.47c-1.53,0-1.47-1.26-1.47-1.26V103.31h-.62"/><path class="cls-9" d="M191.17,91h-1a3.15,3.15,0,0,0-2.94,2.2,1.2,1.2,0,0,0-.07.42v8.76a.85.85,0,0,0,.92.92c1,0,1.2-.62,1.2-.62V95h.53v19.7a1.32,1.32,0,0,0,1.41,1.47c1.53,0,1.47-1.26,1.47-1.26V103.31h.62"/><circle class="cls-9" cx="193.14" cy="87.88" r="2.5"/><path class="cls-9" d="M232.38,91h4.82a3.15,3.15,0,0,1,2.94,2.2,1.53,1.53,0,0,1,.07.41v8.77a.85.85,0,0,1-.92.92c-1,0-1.2-.62-1.2-.62V95h-.53v19.7a1.33,1.33,0,0,1-1.42,1.47c-1.52,0-1.47-1.26-1.47-1.26V103.31h-.61"/><path class="cls-9" d="M232.38,91h-1a3.14,3.14,0,0,0-2.93,2.2,1.2,1.2,0,0,0-.07.42v8.76a.84.84,0,0,0,.91.92,1.26,1.26,0,0,0,1.21-.62V95h.53v19.7a1.32,1.32,0,0,0,1.41,1.47c1.53,0,1.47-1.26,1.47-1.26V103.31h.62"/><circle class="cls-9" cx="234.35" cy="87.88" r="2.5"/><path class="cls-9" d="M211.77,91h4.83a3.14,3.14,0,0,1,2.93,2.2,1.22,1.22,0,0,1,.07.41v8.77a.85.85,0,0,1-.92.92c-1,0-1.2-.62-1.2-.62V95H217v19.7a1.32,1.32,0,0,1-1.41,1.47c-1.53,0-1.47-1.26-1.47-1.26V103.31h-.62"/><path class="cls-9" d="M211.77,91h-1a3.14,3.14,0,0,0-2.93,2.2,1.2,1.2,0,0,0-.07.42v8.76a.84.84,0,0,0,.91.92,1.26,1.26,0,0,0,1.21-.62V95h.53v19.7a1.32,1.32,0,0,0,1.41,1.47c1.53,0,1.47-1.26,1.47-1.26V103.31H214"/><circle class="cls-9" cx="213.74" cy="87.88" r="2.5"/><path class="cls-9" d="M170.56,91h4.82a3.15,3.15,0,0,1,2.94,2.2,1.53,1.53,0,0,1,.07.41v8.77a.85.85,0,0,1-.92.92,1.26,1.26,0,0,1-1.21-.62V95h-.53v19.7a1.32,1.32,0,0,1-1.41,1.47c-1.53,0-1.47-1.26-1.47-1.26V103.31h-.62"/><path class="cls-9" d="M170.56,91h-1a3.16,3.16,0,0,0-2.94,2.2,1.48,1.48,0,0,0-.07.42v8.76a.85.85,0,0,0,.92.92,1.26,1.26,0,0,0,1.21-.62V95h.53v19.7a1.32,1.32,0,0,0,1.41,1.47c1.53,0,1.47-1.26,1.47-1.26V103.31h.61"/><circle class="cls-9" cx="172.53" cy="87.88" r="2.5"/><path class="cls-9" d="M26.31,126.31h4.82a3.17,3.17,0,0,1,2.94,2.21,1.4,1.4,0,0,1,.06.41v8.76a.85.85,0,0,1-.91.93A1.26,1.26,0,0,1,32,138v-7.7h-.53V150a1.32,1.32,0,0,1-1.41,1.47c-1.53,0-1.47-1.26-1.47-1.26V138.59H28"/><path class="cls-9" d="M26.31,126.31h-1a3.18,3.18,0,0,0-2.94,2.2,1.61,1.61,0,0,0-.07.43v8.75a.86.86,0,0,0,.92.93c1,0,1.2-.62,1.2-.62v-7.7H25V150a1.33,1.33,0,0,0,1.42,1.47c1.53,0,1.47-1.26,1.47-1.26V138.59h.61"/><circle class="cls-9" cx="28.28" cy="123.16" r="2.5"/><path class="cls-9" d="M46.91,126.31h4.83a3.16,3.16,0,0,1,2.93,2.21,1.14,1.14,0,0,1,.07.41v8.76a.85.85,0,0,1-.91.93,1.26,1.26,0,0,1-1.21-.62v-7.7h-.53V150a1.32,1.32,0,0,1-1.41,1.47c-1.53,0-1.47-1.26-1.47-1.26V138.59h-.62"/><path class="cls-9" d="M46.91,126.31h-1a3.16,3.16,0,0,0-2.93,2.2,1.29,1.29,0,0,0-.07.43v8.75a.86.86,0,0,0,.92.93c1,0,1.2-.62,1.2-.62v-7.7h.53V150A1.32,1.32,0,0,0,47,151.47c1.53,0,1.47-1.26,1.47-1.26V138.59h.62"/><circle class="cls-9" cx="48.89" cy="123.16" r="2.5"/><path class="cls-9" d="M67.52,126.31h4.82a3.17,3.17,0,0,1,2.94,2.21,1.14,1.14,0,0,1,.07.41v8.76a.86.86,0,0,1-.92.93c-1,0-1.2-.62-1.2-.62v-7.7H72.7V150a1.32,1.32,0,0,1-1.41,1.47c-1.53,0-1.47-1.26-1.47-1.26V138.59H69.2"/><path class="cls-9" d="M67.52,126.31h-1a3.16,3.16,0,0,0-2.93,2.2,1.29,1.29,0,0,0-.07.43v8.75a.85.85,0,0,0,.91.93,1.26,1.26,0,0,0,1.21-.62v-7.7h.53V150a1.32,1.32,0,0,0,1.41,1.47c1.53,0,1.47-1.26,1.47-1.26V138.59h.62"/><circle class="cls-9" cx="69.49" cy="123.16" r="2.5"/><path class="cls-9" d="M88.13,126.31H93a3.17,3.17,0,0,1,2.94,2.21,1.41,1.41,0,0,1,.07.41v8.76a.86.86,0,0,1-.92.93,1.26,1.26,0,0,1-1.21-.62v-7.7H93.3V150a1.32,1.32,0,0,1-1.41,1.47c-1.53,0-1.47-1.26-1.47-1.26V138.59h-.61"/><path class="cls-9" d="M88.13,126.31h-1a3.16,3.16,0,0,0-2.93,2.2,1.31,1.31,0,0,0-.08.43v8.75a.86.86,0,0,0,.92.93,1.26,1.26,0,0,0,1.21-.62v-7.7h.53V150a1.32,1.32,0,0,0,1.41,1.47c1.53,0,1.47-1.26,1.47-1.26V138.59h.62"/><circle class="cls-9" cx="90.1" cy="123.16" r="2.5"/><path class="cls-9" d="M108.74,126.31h4.82a3.17,3.17,0,0,1,2.94,2.21,1.4,1.4,0,0,1,.06.41v8.76a.85.85,0,0,1-.91.93,1.26,1.26,0,0,1-1.21-.62v-7.7h-.53V150a1.32,1.32,0,0,1-1.41,1.47c-1.53,0-1.47-1.26-1.47-1.26V138.59h-.62"/><path class="cls-9" d="M108.74,126.31h-1a3.17,3.17,0,0,0-2.94,2.2,1.61,1.61,0,0,0-.07.43v8.75a.86.86,0,0,0,.92.93c1,0,1.2-.62,1.2-.62v-7.7h.53V150a1.33,1.33,0,0,0,1.41,1.47c1.53,0,1.48-1.26,1.48-1.26V138.59h.61"/><circle class="cls-9" cx="110.71" cy="123.16" r="2.5"/><path class="cls-9" d="M129.34,126.31h4.83a3.16,3.16,0,0,1,2.93,2.21,1.14,1.14,0,0,1,.07.41v8.76a.86.86,0,0,1-.92.93c-1,0-1.2-.62-1.2-.62v-7.7h-.53V150a1.32,1.32,0,0,1-1.41,1.47c-1.53,0-1.47-1.26-1.47-1.26V138.59H131"/><path class="cls-9" d="M129.34,126.31h-1a3.16,3.16,0,0,0-2.93,2.2,1.29,1.29,0,0,0-.07.43v8.75a.86.86,0,0,0,.92.93c1,0,1.2-.62,1.2-.62v-7.7H128V150a1.32,1.32,0,0,0,1.41,1.47c1.53,0,1.47-1.26,1.47-1.26V138.59h.62"/><circle class="cls-9" cx="131.31" cy="123.16" r="2.5"/><path class="cls-9" d="M150,126.31h4.82a3.17,3.17,0,0,1,2.94,2.21,1.14,1.14,0,0,1,.07.41v8.76a.86.86,0,0,1-.92.93c-1,0-1.2-.62-1.2-.62v-7.7h-.53V150a1.33,1.33,0,0,1-1.41,1.47c-1.53,0-1.48-1.26-1.48-1.26V138.59h-.61"/><path class="cls-9" d="M150,126.31h-1a3.16,3.16,0,0,0-2.93,2.2,1.29,1.29,0,0,0-.07.43v8.75a.85.85,0,0,0,.91.93,1.26,1.26,0,0,0,1.21-.62v-7.7h.53V150a1.32,1.32,0,0,0,1.41,1.47c1.53,0,1.47-1.26,1.47-1.26V138.59h.62"/><circle class="cls-9" cx="151.92" cy="123.16" r="2.5"/><path class="cls-9" d="M191.17,126.31H196a3.16,3.16,0,0,1,2.93,2.21,1.14,1.14,0,0,1,.07.41v8.76a.85.85,0,0,1-.91.93,1.26,1.26,0,0,1-1.21-.62v-7.7h-.53V150a1.32,1.32,0,0,1-1.41,1.47c-1.53,0-1.47-1.26-1.47-1.26V138.59h-.62"/><path class="cls-9" d="M191.17,126.31h-1a3.17,3.17,0,0,0-2.94,2.2,1.29,1.29,0,0,0-.07.43v8.75a.86.86,0,0,0,.92.93c1,0,1.2-.62,1.2-.62v-7.7h.53V150a1.32,1.32,0,0,0,1.41,1.47c1.53,0,1.47-1.26,1.47-1.26V138.59h.62"/><circle class="cls-9" cx="193.14" cy="123.16" r="2.5"/><path class="cls-9" d="M232.38,126.31h4.82a3.17,3.17,0,0,1,2.94,2.21,1.41,1.41,0,0,1,.07.41v8.76a.86.86,0,0,1-.92.93c-1,0-1.2-.62-1.2-.62v-7.7h-.53V150a1.33,1.33,0,0,1-1.42,1.47c-1.52,0-1.47-1.26-1.47-1.26V138.59h-.61"/><path class="cls-9" d="M232.38,126.31h-1a3.16,3.16,0,0,0-2.93,2.2,1.29,1.29,0,0,0-.07.43v8.75a.85.85,0,0,0,.91.93,1.26,1.26,0,0,0,1.21-.62v-7.7h.53V150a1.32,1.32,0,0,0,1.41,1.47c1.53,0,1.47-1.26,1.47-1.26V138.59h.62"/><circle class="cls-9" cx="234.35" cy="123.16" r="2.5"/><path class="cls-9" d="M211.77,126.31h4.83a3.16,3.16,0,0,1,2.93,2.21,1.14,1.14,0,0,1,.07.41v8.76a.86.86,0,0,1-.92.93c-1,0-1.2-.62-1.2-.62v-7.7H217V150a1.32,1.32,0,0,1-1.41,1.47c-1.53,0-1.47-1.26-1.47-1.26V138.59h-.62"/><path class="cls-9" d="M211.77,126.31h-1a3.16,3.16,0,0,0-2.93,2.2,1.29,1.29,0,0,0-.07.43v8.75a.85.85,0,0,0,.91.93,1.26,1.26,0,0,0,1.21-.62v-7.7h.53V150a1.32,1.32,0,0,0,1.41,1.47c1.53,0,1.47-1.26,1.47-1.26V138.59H214"/><circle class="cls-9" cx="213.74" cy="123.16" r="2.5"/><path class="cls-9" d="M170.56,126.31h4.82a3.17,3.17,0,0,1,2.94,2.21,1.41,1.41,0,0,1,.07.41v8.76a.86.86,0,0,1-.92.93,1.26,1.26,0,0,1-1.21-.62v-7.7h-.53V150a1.32,1.32,0,0,1-1.41,1.47c-1.53,0-1.47-1.26-1.47-1.26V138.59h-.62"/><path class="cls-9" d="M170.56,126.31h-1a3.18,3.18,0,0,0-2.94,2.2,1.61,1.61,0,0,0-.07.43v8.75a.86.86,0,0,0,.92.93,1.26,1.26,0,0,0,1.21-.62v-7.7h.53V150a1.32,1.32,0,0,0,1.41,1.47c1.53,0,1.47-1.26,1.47-1.26V138.59h.61"/><circle class="cls-9" cx="172.53" cy="123.16" r="2.5"/><path class="cls-9" d="M26.31,163.21h4.82a3.17,3.17,0,0,1,2.94,2.21,1.4,1.4,0,0,1,.06.41v8.76a.85.85,0,0,1-.91.93A1.26,1.26,0,0,1,32,174.9v-7.7h-.53v19.7a1.32,1.32,0,0,1-1.41,1.47c-1.53,0-1.47-1.27-1.47-1.27V175.49H28"/><path class="cls-9" d="M26.31,163.21h-1a3.18,3.18,0,0,0-2.94,2.2,1.55,1.55,0,0,0-.07.43v8.75a.86.86,0,0,0,.92.93c1,0,1.2-.62,1.2-.62v-7.7H25v19.7a1.33,1.33,0,0,0,1.42,1.47c1.53,0,1.47-1.27,1.47-1.27V175.49h.61"/><circle class="cls-9" cx="28.28" cy="160.06" r="2.5"/><path class="cls-9" d="M46.91,163.21h4.83a3.16,3.16,0,0,1,2.93,2.21,1.14,1.14,0,0,1,.07.41v8.76a.85.85,0,0,1-.91.93,1.26,1.26,0,0,1-1.21-.62v-7.7h-.53v19.7a1.32,1.32,0,0,1-1.41,1.47c-1.53,0-1.47-1.27-1.47-1.27V175.49h-.62"/><path class="cls-9" d="M46.91,163.21h-1a3.16,3.16,0,0,0-2.93,2.2,1.25,1.25,0,0,0-.07.43v8.75a.86.86,0,0,0,.92.93c1,0,1.2-.62,1.2-.62v-7.7h.53v19.7A1.32,1.32,0,0,0,47,188.37c1.53,0,1.47-1.27,1.47-1.27V175.49h.62"/><circle class="cls-9" cx="48.89" cy="160.06" r="2.5"/><path class="cls-9" d="M67.52,163.21h4.82a3.17,3.17,0,0,1,2.94,2.21,1.14,1.14,0,0,1,.07.41v8.76a.86.86,0,0,1-.92.93c-1,0-1.2-.62-1.2-.62v-7.7H72.7v19.7a1.32,1.32,0,0,1-1.41,1.47c-1.53,0-1.47-1.27-1.47-1.27V175.49H69.2"/><path class="cls-9" d="M67.52,163.21h-1a3.16,3.16,0,0,0-2.93,2.2,1.25,1.25,0,0,0-.07.43v8.75a.85.85,0,0,0,.91.93,1.26,1.26,0,0,0,1.21-.62v-7.7h.53v19.7a1.32,1.32,0,0,0,1.41,1.47c1.53,0,1.47-1.27,1.47-1.27V175.49h.62"/><circle class="cls-9" cx="69.49" cy="160.06" r="2.5"/><path class="cls-9" d="M88.13,163.21H93a3.17,3.17,0,0,1,2.94,2.21,1.41,1.41,0,0,1,.07.41v8.76a.86.86,0,0,1-.92.93,1.26,1.26,0,0,1-1.21-.62v-7.7H93.3v19.7a1.32,1.32,0,0,1-1.41,1.47c-1.53,0-1.47-1.27-1.47-1.27V175.49h-.61"/><path class="cls-9" d="M88.13,163.21h-1a3.16,3.16,0,0,0-2.93,2.2,1.26,1.26,0,0,0-.08.43v8.75a.86.86,0,0,0,.92.93,1.26,1.26,0,0,0,1.21-.62v-7.7h.53v19.7a1.32,1.32,0,0,0,1.41,1.47c1.53,0,1.47-1.27,1.47-1.27V175.49h.62"/><circle class="cls-9" cx="90.1" cy="160.06" r="2.5"/><path class="cls-9" d="M108.74,163.21h4.82a3.17,3.17,0,0,1,2.94,2.21,1.4,1.4,0,0,1,.06.41v8.76a.85.85,0,0,1-.91.93,1.26,1.26,0,0,1-1.21-.62v-7.7h-.53v19.7a1.32,1.32,0,0,1-1.41,1.47c-1.53,0-1.47-1.27-1.47-1.27V175.49h-.62"/><path class="cls-9" d="M108.74,163.21h-1a3.17,3.17,0,0,0-2.94,2.2,1.55,1.55,0,0,0-.07.43v8.75a.86.86,0,0,0,.92.93c1,0,1.2-.62,1.2-.62v-7.7h.53v19.7a1.33,1.33,0,0,0,1.41,1.47c1.53,0,1.48-1.27,1.48-1.27V175.49h.61"/><circle class="cls-9" cx="110.71" cy="160.06" r="2.5"/><path class="cls-9" d="M129.34,163.21h4.83a3.16,3.16,0,0,1,2.93,2.21,1.14,1.14,0,0,1,.07.41v8.76a.86.86,0,0,1-.92.93c-1,0-1.2-.62-1.2-.62v-7.7h-.53v19.7a1.32,1.32,0,0,1-1.41,1.47c-1.53,0-1.47-1.27-1.47-1.27V175.49H131"/><path class="cls-9" d="M129.34,163.21h-1a3.16,3.16,0,0,0-2.93,2.2,1.25,1.25,0,0,0-.07.43v8.75a.86.86,0,0,0,.92.93c1,0,1.2-.62,1.2-.62v-7.7H128v19.7a1.32,1.32,0,0,0,1.41,1.47c1.53,0,1.47-1.27,1.47-1.27V175.49h.62"/><circle class="cls-9" cx="131.31" cy="160.06" r="2.5"/><path class="cls-9" d="M150,163.21h4.82a3.17,3.17,0,0,1,2.94,2.21,1.14,1.14,0,0,1,.07.41v8.76a.86.86,0,0,1-.92.93c-1,0-1.2-.62-1.2-.62v-7.7h-.53v19.7a1.33,1.33,0,0,1-1.41,1.47c-1.53,0-1.48-1.27-1.48-1.27V175.49h-.61"/><path class="cls-9" d="M150,163.21h-1a3.16,3.16,0,0,0-2.93,2.2,1.25,1.25,0,0,0-.07.43v8.75a.85.85,0,0,0,.91.93,1.26,1.26,0,0,0,1.21-.62v-7.7h.53v19.7a1.32,1.32,0,0,0,1.41,1.47c1.53,0,1.47-1.27,1.47-1.27V175.49h.62"/><circle class="cls-9" cx="151.92" cy="160.06" r="2.5"/><path class="cls-9" d="M191.17,163.21H196a3.16,3.16,0,0,1,2.93,2.21,1.14,1.14,0,0,1,.07.41v8.76a.85.85,0,0,1-.91.93,1.26,1.26,0,0,1-1.21-.62v-7.7h-.53v19.7a1.32,1.32,0,0,1-1.41,1.47c-1.53,0-1.47-1.27-1.47-1.27V175.49h-.62"/><path class="cls-9" d="M191.17,163.21h-1a3.17,3.17,0,0,0-2.94,2.2,1.25,1.25,0,0,0-.07.43v8.75a.86.86,0,0,0,.92.93c1,0,1.2-.62,1.2-.62v-7.7h.53v19.7a1.32,1.32,0,0,0,1.41,1.47c1.53,0,1.47-1.27,1.47-1.27V175.49h.62"/><circle class="cls-9" cx="193.14" cy="160.06" r="2.5"/><path class="cls-9" d="M232.38,163.21h4.82a3.17,3.17,0,0,1,2.94,2.21,1.41,1.41,0,0,1,.07.41v8.76a.86.86,0,0,1-.92.93c-1,0-1.2-.62-1.2-.62v-7.7h-.53v19.7a1.33,1.33,0,0,1-1.42,1.47c-1.52,0-1.47-1.27-1.47-1.27V175.49h-.61"/><path class="cls-9" d="M232.38,163.21h-1a3.16,3.16,0,0,0-2.93,2.2,1.25,1.25,0,0,0-.07.43v8.75a.85.85,0,0,0,.91.93,1.26,1.26,0,0,0,1.21-.62v-7.7h.53v19.7a1.32,1.32,0,0,0,1.41,1.47c1.53,0,1.47-1.27,1.47-1.27V175.49h.62"/><circle class="cls-9" cx="234.35" cy="160.06" r="2.5"/><path class="cls-9" d="M211.77,163.21h4.83a3.16,3.16,0,0,1,2.93,2.21,1.14,1.14,0,0,1,.07.41v8.76a.86.86,0,0,1-.92.93c-1,0-1.2-.62-1.2-.62v-7.7H217v19.7a1.32,1.32,0,0,1-1.41,1.47c-1.53,0-1.47-1.27-1.47-1.27V175.49h-.62"/><path class="cls-9" d="M211.77,163.21h-1a3.16,3.16,0,0,0-2.93,2.2,1.25,1.25,0,0,0-.07.43v8.75a.85.85,0,0,0,.91.93,1.26,1.26,0,0,0,1.21-.62v-7.7h.53v19.7a1.32,1.32,0,0,0,1.41,1.47c1.53,0,1.47-1.27,1.47-1.27V175.49H214"/><circle class="cls-9" cx="213.74" cy="160.06" r="2.5"/><path class="cls-9" d="M170.56,163.21h4.82a3.17,3.17,0,0,1,2.94,2.21,1.41,1.41,0,0,1,.07.41v8.76a.86.86,0,0,1-.92.93,1.26,1.26,0,0,1-1.21-.62v-7.7h-.53v19.7a1.32,1.32,0,0,1-1.41,1.47c-1.53,0-1.47-1.27-1.47-1.27V175.49h-.62"/><path class="cls-9" d="M170.56,163.21h-1a3.18,3.18,0,0,0-2.94,2.2,1.55,1.55,0,0,0-.07.43v8.75a.86.86,0,0,0,.92.93,1.26,1.26,0,0,0,1.21-.62v-7.7h.53v19.7a1.32,1.32,0,0,0,1.41,1.47c1.53,0,1.47-1.27,1.47-1.27V175.49h.61"/><circle class="cls-9" cx="172.53" cy="160.06" r="2.5"/><path class="cls-9" d="M67.45,54.6h4.83a3.16,3.16,0,0,1,2.93,2.21,1.14,1.14,0,0,1,.07.41V66a.86.86,0,0,1-.92.93c-1,0-1.2-.62-1.2-.62V58.58h-.53V78.29a1.32,1.32,0,0,1-1.41,1.47c-1.53,0-1.47-1.27-1.47-1.27V66.88h-.62"/><path class="cls-9" d="M67.45,54.6h-1a3.16,3.16,0,0,0-2.93,2.2,1.25,1.25,0,0,0-.07.43V66a.85.85,0,0,0,.92.93c1,0,1.2-.62,1.2-.62V58.58h.53V78.29a1.32,1.32,0,0,0,1.41,1.47c1.53,0,1.47-1.27,1.47-1.27V66.88h.62"/><circle class="cls-9" cx="69.42" cy="51.44" r="2.5"/><path class="cls-9" d="M88.06,54.6h4.82a3.17,3.17,0,0,1,2.94,2.21,1.41,1.41,0,0,1,.07.41V66a.86.86,0,0,1-.92.93c-1,0-1.2-.62-1.2-.62V58.58h-.53V78.29a1.33,1.33,0,0,1-1.42,1.47c-1.52,0-1.47-1.27-1.47-1.27V66.88h-.61"/><path class="cls-9" d="M88.06,54.6h-1a3.16,3.16,0,0,0-2.93,2.2,1.25,1.25,0,0,0-.07.43V66a.85.85,0,0,0,.91.93,1.26,1.26,0,0,0,1.21-.62V58.58h.53V78.29a1.32,1.32,0,0,0,1.41,1.47c1.53,0,1.47-1.27,1.47-1.27V66.88h.62"/><circle class="cls-9" cx="90.03" cy="51.44" r="2.5"/><path class="cls-9" d="M108.67,54.6h4.82a3.17,3.17,0,0,1,2.94,2.21,1.41,1.41,0,0,1,.07.41V66a.86.86,0,0,1-.92.93,1.26,1.26,0,0,1-1.21-.62V58.58h-.53V78.29a1.32,1.32,0,0,1-1.41,1.47c-1.53,0-1.47-1.27-1.47-1.27V66.88h-.62"/><path class="cls-9" d="M108.67,54.6h-1a3.18,3.18,0,0,0-2.94,2.2,1.55,1.55,0,0,0-.07.43V66a.86.86,0,0,0,.92.93,1.26,1.26,0,0,0,1.21-.62V58.58h.52V78.29a1.33,1.33,0,0,0,1.42,1.47c1.53,0,1.47-1.27,1.47-1.27V66.88h.61"/><circle class="cls-9" cx="110.64" cy="51.44" r="2.5"/><path class="cls-9" d="M129.28,54.6h4.82A3.16,3.16,0,0,1,137,56.81a1.14,1.14,0,0,1,.07.41V66a.85.85,0,0,1-.91.93,1.26,1.26,0,0,1-1.21-.62V58.58h-.53V78.29A1.32,1.32,0,0,1,133,79.76c-1.53,0-1.47-1.27-1.47-1.27V66.88H131"/><path class="cls-9" d="M129.28,54.6h-1a3.16,3.16,0,0,0-2.93,2.2,1.25,1.25,0,0,0-.07.43V66a.86.86,0,0,0,.92.93c1,0,1.2-.62,1.2-.62V58.58H128V78.29a1.32,1.32,0,0,0,1.41,1.47c1.53,0,1.47-1.27,1.47-1.27V66.88h.62"/><circle class="cls-9" cx="131.25" cy="51.44" r="2.5"/><path class="cls-9" d="M149.88,54.6h4.83a3.16,3.16,0,0,1,2.93,2.21,1.14,1.14,0,0,1,.07.41V66a.86.86,0,0,1-.92.93c-1,0-1.2-.62-1.2-.62V58.58h-.53V78.29a1.32,1.32,0,0,1-1.41,1.47c-1.53,0-1.47-1.27-1.47-1.27V66.88h-.62"/><path class="cls-9" d="M149.88,54.6h-1A3.16,3.16,0,0,0,146,56.8a1.25,1.25,0,0,0-.07.43V66a.85.85,0,0,0,.91.93,1.26,1.26,0,0,0,1.21-.62V58.58h.53V78.29A1.32,1.32,0,0,0,150,79.76c1.53,0,1.47-1.27,1.47-1.27V66.88h.62"/><circle class="cls-9" cx="151.85" cy="51.44" r="2.5"/><path class="cls-9" d="M191.1,54.6h4.82a3.17,3.17,0,0,1,2.94,2.21,1.4,1.4,0,0,1,.06.41V66a.85.85,0,0,1-.91.93,1.26,1.26,0,0,1-1.21-.62V58.58h-.53V78.29a1.32,1.32,0,0,1-1.41,1.47c-1.53,0-1.47-1.27-1.47-1.27V66.88h-.62"/><path class="cls-9" d="M191.1,54.6h-1a3.18,3.18,0,0,0-2.94,2.2,1.55,1.55,0,0,0-.07.43V66a.86.86,0,0,0,.92.93c1,0,1.2-.62,1.2-.62V58.58h.53V78.29a1.33,1.33,0,0,0,1.42,1.47c1.52,0,1.47-1.27,1.47-1.27V66.88h.61"/><circle class="cls-9" cx="193.07" cy="51.44" r="2.5"/><path class="cls-9" d="M232.31,54.6h4.82a3.17,3.17,0,0,1,2.94,2.21,1.14,1.14,0,0,1,.07.41V66a.86.86,0,0,1-.92.93c-1,0-1.2-.62-1.2-.62V58.58h-.53V78.29a1.33,1.33,0,0,1-1.41,1.47c-1.53,0-1.47-1.27-1.47-1.27V66.88H234"/><path class="cls-9" d="M232.31,54.6h-1a3.16,3.16,0,0,0-2.93,2.2,1.25,1.25,0,0,0-.07.43V66a.85.85,0,0,0,.91.93,1.26,1.26,0,0,0,1.21-.62V58.58H231V78.29a1.32,1.32,0,0,0,1.41,1.47c1.53,0,1.47-1.27,1.47-1.27V66.88h.62"/><circle class="cls-9" cx="234.28" cy="51.44" r="2.5"/><path class="cls-9" d="M211.7,54.6h4.83a3.16,3.16,0,0,1,2.93,2.21,1.14,1.14,0,0,1,.07.41V66a.85.85,0,0,1-.92.93c-1,0-1.2-.62-1.2-.62V58.58h-.53V78.29a1.32,1.32,0,0,1-1.41,1.47c-1.53,0-1.47-1.27-1.47-1.27V66.88h-.62"/><path class="cls-9" d="M211.7,54.6h-1a3.16,3.16,0,0,0-2.93,2.2,1.25,1.25,0,0,0-.07.43V66a.86.86,0,0,0,.92.93c1,0,1.2-.62,1.2-.62V58.58h.53V78.29a1.32,1.32,0,0,0,1.41,1.47c1.53,0,1.47-1.27,1.47-1.27V66.88h.62"/><circle class="cls-9" cx="213.67" cy="51.44" r="2.5"/><path class="cls-9" d="M170.49,54.6h4.82a3.17,3.17,0,0,1,2.94,2.21,1.41,1.41,0,0,1,.07.41V66a.86.86,0,0,1-.92.93,1.26,1.26,0,0,1-1.21-.62V58.58h-.52V78.29a1.33,1.33,0,0,1-1.42,1.47c-1.53,0-1.47-1.27-1.47-1.27V66.88h-.61"/><path class="cls-9" d="M170.49,54.6h-1a3.16,3.16,0,0,0-2.93,2.2,1.26,1.26,0,0,0-.08.43V66a.86.86,0,0,0,.92.93,1.26,1.26,0,0,0,1.21-.62V58.58h.53V78.29a1.32,1.32,0,0,0,1.41,1.47c1.53,0,1.47-1.27,1.47-1.27V66.88h.62"/><circle class="cls-9" cx="172.46" cy="51.44" r="2.5"/><path class="cls-9" d="M26.24,91.06h4.82A3.17,3.17,0,0,1,34,93.27a1.41,1.41,0,0,1,.07.41v8.76a.86.86,0,0,1-.92.93,1.26,1.26,0,0,1-1.21-.62v-7.7h-.53v19.7A1.32,1.32,0,0,1,30,116.22c-1.53,0-1.47-1.27-1.47-1.27V103.34h-.61"/><path class="cls-9" d="M26.24,91.06h-1a3.18,3.18,0,0,0-2.94,2.2,1.55,1.55,0,0,0-.07.43v8.75a.86.86,0,0,0,.92.93,1.26,1.26,0,0,0,1.21-.62v-7.7h.53v19.7a1.32,1.32,0,0,0,1.41,1.47c1.53,0,1.47-1.27,1.47-1.27V103.34h.62"/><circle class="cls-9" cx="28.21" cy="87.91" r="2.5"/><path class="cls-9" d="M46.85,91.06h4.82a3.18,3.18,0,0,1,2.94,2.21,1.4,1.4,0,0,1,.06.41v8.76a.85.85,0,0,1-.91.93,1.26,1.26,0,0,1-1.21-.62v-7.7H52v19.7a1.32,1.32,0,0,1-1.41,1.47c-1.53,0-1.47-1.27-1.47-1.27V103.34h-.62"/><path class="cls-9" d="M46.85,91.06h-1a3.17,3.17,0,0,0-2.94,2.2,1.25,1.25,0,0,0-.07.43v8.75a.86.86,0,0,0,.92.93c1,0,1.2-.62,1.2-.62v-7.7h.53v19.7a1.33,1.33,0,0,0,1.41,1.47c1.53,0,1.47-1.27,1.47-1.27V103.34H49"/><circle class="cls-9" cx="48.82" cy="87.91" r="2.5"/><path class="cls-9" d="M67.45,91.06h4.83a3.16,3.16,0,0,1,2.93,2.21,1.14,1.14,0,0,1,.07.41v8.76a.86.86,0,0,1-.92.93c-1,0-1.2-.62-1.2-.62v-7.7h-.53v19.7a1.32,1.32,0,0,1-1.41,1.47c-1.53,0-1.47-1.27-1.47-1.27V103.34h-.62"/><path class="cls-9" d="M67.45,91.06h-1a3.16,3.16,0,0,0-2.93,2.2,1.25,1.25,0,0,0-.07.43v8.75a.85.85,0,0,0,.92.93c1,0,1.2-.62,1.2-.62v-7.7h.53v19.7a1.32,1.32,0,0,0,1.41,1.47C69.07,116.19,69,115,69,115V103.34h.62"/><circle class="cls-9" cx="69.42" cy="87.91" r="2.5"/><path class="cls-9" d="M88.06,91.06h4.82a3.17,3.17,0,0,1,2.94,2.21,1.41,1.41,0,0,1,.07.41v8.76a.86.86,0,0,1-.92.93c-1,0-1.2-.62-1.2-.62v-7.7h-.53v19.7a1.33,1.33,0,0,1-1.42,1.47c-1.52,0-1.47-1.27-1.47-1.27V103.34h-.61"/><path class="cls-9" d="M88.06,91.06h-1a3.16,3.16,0,0,0-2.93,2.2,1.25,1.25,0,0,0-.07.43v8.75a.85.85,0,0,0,.91.93,1.26,1.26,0,0,0,1.21-.62v-7.7h.53v19.7a1.32,1.32,0,0,0,1.41,1.47c1.53,0,1.47-1.27,1.47-1.27V103.34h.62"/><circle class="cls-9" cx="90.03" cy="87.91" r="2.5"/><path class="cls-9" d="M108.67,91.06h4.82a3.17,3.17,0,0,1,2.94,2.21,1.41,1.41,0,0,1,.07.41v8.76a.86.86,0,0,1-.92.93,1.26,1.26,0,0,1-1.21-.62v-7.7h-.53v19.7a1.32,1.32,0,0,1-1.41,1.47c-1.53,0-1.47-1.27-1.47-1.27V103.34h-.62"/><path class="cls-9" d="M108.67,91.06h-1a3.18,3.18,0,0,0-2.94,2.2,1.55,1.55,0,0,0-.07.43v8.75a.86.86,0,0,0,.92.93,1.26,1.26,0,0,0,1.21-.62v-7.7h.52v19.7a1.33,1.33,0,0,0,1.42,1.47c1.53,0,1.47-1.27,1.47-1.27V103.34h.61"/><circle class="cls-9" cx="110.64" cy="87.91" r="2.5"/><path class="cls-9" d="M129.28,91.06h4.82A3.16,3.16,0,0,1,137,93.27a1.14,1.14,0,0,1,.07.41v8.76a.85.85,0,0,1-.91.93,1.26,1.26,0,0,1-1.21-.62v-7.7h-.53v19.7a1.32,1.32,0,0,1-1.41,1.47c-1.53,0-1.47-1.27-1.47-1.27V103.34H131"/><path class="cls-9" d="M129.28,91.06h-1a3.16,3.16,0,0,0-2.93,2.2,1.25,1.25,0,0,0-.07.43v8.75a.86.86,0,0,0,.92.93c1,0,1.2-.62,1.2-.62v-7.7H128v19.7a1.32,1.32,0,0,0,1.41,1.47c1.53,0,1.47-1.27,1.47-1.27V103.34h.62"/><circle class="cls-9" cx="131.25" cy="87.91" r="2.5"/><path class="cls-9" d="M149.88,91.06h4.83a3.16,3.16,0,0,1,2.93,2.21,1.14,1.14,0,0,1,.07.41v8.76a.86.86,0,0,1-.92.93c-1,0-1.2-.62-1.2-.62v-7.7h-.53v19.7a1.32,1.32,0,0,1-1.41,1.47c-1.53,0-1.47-1.27-1.47-1.27V103.34h-.62"/><path class="cls-9" d="M149.88,91.06h-1a3.16,3.16,0,0,0-2.93,2.2,1.25,1.25,0,0,0-.07.43v8.75a.85.85,0,0,0,.91.93,1.26,1.26,0,0,0,1.21-.62v-7.7h.53v19.7a1.32,1.32,0,0,0,1.41,1.47c1.53,0,1.47-1.27,1.47-1.27V103.34h.62"/><circle class="cls-9" cx="151.85" cy="87.91" r="2.5"/><path class="cls-9" d="M191.1,91.06h4.82a3.17,3.17,0,0,1,2.94,2.21,1.4,1.4,0,0,1,.06.41v8.76a.85.85,0,0,1-.91.93,1.26,1.26,0,0,1-1.21-.62v-7.7h-.53v19.7a1.32,1.32,0,0,1-1.41,1.47c-1.53,0-1.47-1.27-1.47-1.27V103.34h-.62"/><path class="cls-9" d="M191.1,91.06h-1a3.18,3.18,0,0,0-2.94,2.2,1.55,1.55,0,0,0-.07.43v8.75a.86.86,0,0,0,.92.93c1,0,1.2-.62,1.2-.62v-7.7h.53v19.7a1.33,1.33,0,0,0,1.42,1.47c1.52,0,1.47-1.27,1.47-1.27V103.34h.61"/><circle class="cls-9" cx="193.07" cy="87.91" r="2.5"/><path class="cls-9" d="M232.31,91.06h4.82a3.17,3.17,0,0,1,2.94,2.21,1.14,1.14,0,0,1,.07.41v8.76a.86.86,0,0,1-.92.93c-1,0-1.2-.62-1.2-.62v-7.7h-.53v19.7a1.33,1.33,0,0,1-1.41,1.47c-1.53,0-1.47-1.27-1.47-1.27V103.34H234"/><path class="cls-9" d="M232.31,91.06h-1a3.16,3.16,0,0,0-2.93,2.2,1.25,1.25,0,0,0-.07.43v8.75a.85.85,0,0,0,.91.93,1.26,1.26,0,0,0,1.21-.62v-7.7H231v19.7a1.32,1.32,0,0,0,1.41,1.47c1.53,0,1.47-1.27,1.47-1.27V103.34h.62"/><circle class="cls-9" cx="234.28" cy="87.91" r="2.5"/><path class="cls-9" d="M211.7,91.06h4.83a3.16,3.16,0,0,1,2.93,2.21,1.14,1.14,0,0,1,.07.41v8.76a.85.85,0,0,1-.92.93c-1,0-1.2-.62-1.2-.62v-7.7h-.53v19.7a1.32,1.32,0,0,1-1.41,1.47c-1.53,0-1.47-1.27-1.47-1.27V103.34h-.62"/><path class="cls-9" d="M211.7,91.06h-1a3.16,3.16,0,0,0-2.93,2.2,1.25,1.25,0,0,0-.07.43v8.75a.86.86,0,0,0,.92.93c1,0,1.2-.62,1.2-.62v-7.7h.53v19.7a1.32,1.32,0,0,0,1.41,1.47c1.53,0,1.47-1.27,1.47-1.27V103.34h.62"/><circle class="cls-9" cx="213.67" cy="87.91" r="2.5"/><path class="cls-9" d="M170.49,91.06h4.82a3.17,3.17,0,0,1,2.94,2.21,1.41,1.41,0,0,1,.07.41v8.76a.86.86,0,0,1-.92.93,1.26,1.26,0,0,1-1.21-.62v-7.7h-.52v19.7a1.33,1.33,0,0,1-1.42,1.47c-1.53,0-1.47-1.27-1.47-1.27V103.34h-.61"/><path class="cls-9" d="M170.49,91.06h-1a3.16,3.16,0,0,0-2.93,2.2,1.26,1.26,0,0,0-.08.43v8.75a.86.86,0,0,0,.92.93,1.26,1.26,0,0,0,1.21-.62v-7.7h.53v19.7a1.32,1.32,0,0,0,1.41,1.47c1.53,0,1.47-1.27,1.47-1.27V103.34h.62"/><circle class="cls-9" cx="172.46" cy="87.91" r="2.5"/><path class="cls-9" d="M26.24,126.34h4.82A3.17,3.17,0,0,1,34,128.55a1.41,1.41,0,0,1,.07.41v8.76a.86.86,0,0,1-.92.93,1.26,1.26,0,0,1-1.21-.62v-7.71h-.53V150A1.32,1.32,0,0,1,30,151.5c-1.53,0-1.47-1.27-1.47-1.27V138.62h-.61"/><path class="cls-9" d="M26.24,126.34h-1a3.18,3.18,0,0,0-2.94,2.2,1.55,1.55,0,0,0-.07.43v8.75a.86.86,0,0,0,.92.93,1.26,1.26,0,0,0,1.21-.62v-7.71h.53V150a1.32,1.32,0,0,0,1.41,1.47c1.53,0,1.47-1.27,1.47-1.27V138.62h.62"/><circle class="cls-9" cx="28.21" cy="123.18" r="2.5"/><path class="cls-9" d="M46.85,126.34h4.82a3.18,3.18,0,0,1,2.94,2.21,1.4,1.4,0,0,1,.06.41v8.76a.85.85,0,0,1-.91.93,1.26,1.26,0,0,1-1.21-.62v-7.71H52V150a1.32,1.32,0,0,1-1.41,1.47c-1.53,0-1.47-1.27-1.47-1.27V138.62h-.62"/><path class="cls-9" d="M46.85,126.34h-1a3.17,3.17,0,0,0-2.94,2.2,1.25,1.25,0,0,0-.07.43v8.75a.86.86,0,0,0,.92.93c1,0,1.2-.62,1.2-.62v-7.71h.53V150a1.33,1.33,0,0,0,1.41,1.47c1.53,0,1.47-1.27,1.47-1.27V138.62H49"/><circle class="cls-9" cx="48.82" cy="123.18" r="2.5"/><path class="cls-9" d="M67.45,126.34h4.83a3.16,3.16,0,0,1,2.93,2.21,1.14,1.14,0,0,1,.07.41v8.76a.86.86,0,0,1-.92.93c-1,0-1.2-.62-1.2-.62v-7.71h-.53V150a1.32,1.32,0,0,1-1.41,1.47c-1.53,0-1.47-1.27-1.47-1.27V138.62h-.62"/><path class="cls-9" d="M67.45,126.34h-1a3.16,3.16,0,0,0-2.93,2.2,1.25,1.25,0,0,0-.07.43v8.75a.85.85,0,0,0,.92.93c1,0,1.2-.62,1.2-.62v-7.71h.53V150a1.32,1.32,0,0,0,1.41,1.47c1.53,0,1.47-1.27,1.47-1.27V138.62h.62"/><circle class="cls-9" cx="69.42" cy="123.18" r="2.5"/><path class="cls-9" d="M88.06,126.34h4.82a3.17,3.17,0,0,1,2.94,2.21,1.41,1.41,0,0,1,.07.41v8.76a.86.86,0,0,1-.92.93c-1,0-1.2-.62-1.2-.62v-7.71h-.53V150a1.33,1.33,0,0,1-1.42,1.47c-1.52,0-1.47-1.27-1.47-1.27V138.62h-.61"/><path class="cls-9" d="M88.06,126.34h-1a3.16,3.16,0,0,0-2.93,2.2,1.25,1.25,0,0,0-.07.43v8.75a.85.85,0,0,0,.91.93,1.26,1.26,0,0,0,1.21-.62v-7.71h.53V150a1.32,1.32,0,0,0,1.41,1.47c1.53,0,1.47-1.27,1.47-1.27V138.62h.62"/><circle class="cls-9" cx="90.03" cy="123.18" r="2.5"/><path class="cls-9" d="M108.67,126.34h4.82a3.17,3.17,0,0,1,2.94,2.21,1.41,1.41,0,0,1,.07.41v8.76a.86.86,0,0,1-.92.93,1.26,1.26,0,0,1-1.21-.62v-7.71h-.53V150a1.32,1.32,0,0,1-1.41,1.47c-1.53,0-1.47-1.27-1.47-1.27V138.62h-.62"/><path class="cls-9" d="M108.67,126.34h-1a3.18,3.18,0,0,0-2.94,2.2,1.55,1.55,0,0,0-.07.43v8.75a.86.86,0,0,0,.92.93,1.26,1.26,0,0,0,1.21-.62v-7.71h.52V150a1.33,1.33,0,0,0,1.42,1.47c1.53,0,1.47-1.27,1.47-1.27V138.62h.61"/><circle class="cls-9" cx="110.64" cy="123.18" r="2.5"/><path class="cls-9" d="M129.28,126.34h4.82a3.16,3.16,0,0,1,2.93,2.21,1.14,1.14,0,0,1,.07.41v8.76a.85.85,0,0,1-.91.93A1.26,1.26,0,0,1,135,138v-7.71h-.53V150A1.32,1.32,0,0,1,133,151.5c-1.53,0-1.47-1.27-1.47-1.27V138.62H131"/><path class="cls-9" d="M129.28,126.34h-1a3.16,3.16,0,0,0-2.93,2.2,1.25,1.25,0,0,0-.07.43v8.75a.86.86,0,0,0,.92.93c1,0,1.2-.62,1.2-.62v-7.71H128V150a1.32,1.32,0,0,0,1.41,1.47c1.53,0,1.47-1.27,1.47-1.27V138.62h.62"/><circle class="cls-9" cx="131.25" cy="123.18" r="2.5"/><path class="cls-9" d="M149.88,126.34h4.83a3.16,3.16,0,0,1,2.93,2.21,1.14,1.14,0,0,1,.07.41v8.76a.86.86,0,0,1-.92.93c-1,0-1.2-.62-1.2-.62v-7.71h-.53V150a1.32,1.32,0,0,1-1.41,1.47c-1.53,0-1.47-1.27-1.47-1.27V138.62h-.62"/><path class="cls-9" d="M149.88,126.34h-1a3.16,3.16,0,0,0-2.93,2.2,1.25,1.25,0,0,0-.07.43v8.75a.85.85,0,0,0,.91.93A1.26,1.26,0,0,0,148,138v-7.71h.53V150A1.32,1.32,0,0,0,150,151.5c1.53,0,1.47-1.27,1.47-1.27V138.62h.62"/><circle class="cls-9" cx="151.85" cy="123.18" r="2.5"/><path class="cls-9" d="M191.1,126.34h4.82a3.17,3.17,0,0,1,2.94,2.21,1.4,1.4,0,0,1,.06.41v8.76a.85.85,0,0,1-.91.93,1.26,1.26,0,0,1-1.21-.62v-7.71h-.53V150a1.32,1.32,0,0,1-1.41,1.47c-1.53,0-1.47-1.27-1.47-1.27V138.62h-.62"/><path class="cls-9" d="M191.1,126.34h-1a3.18,3.18,0,0,0-2.94,2.2,1.55,1.55,0,0,0-.07.43v8.75a.86.86,0,0,0,.92.93c1,0,1.2-.62,1.2-.62v-7.71h.53V150a1.33,1.33,0,0,0,1.42,1.47c1.52,0,1.47-1.27,1.47-1.27V138.62h.61"/><circle class="cls-9" cx="193.07" cy="123.18" r="2.5"/><path class="cls-9" d="M232.31,126.34h4.82a3.17,3.17,0,0,1,2.94,2.21,1.14,1.14,0,0,1,.07.41v8.76a.86.86,0,0,1-.92.93c-1,0-1.2-.62-1.2-.62v-7.71h-.53V150a1.33,1.33,0,0,1-1.41,1.47c-1.53,0-1.47-1.27-1.47-1.27V138.62H234"/><path class="cls-9" d="M232.31,126.34h-1a3.16,3.16,0,0,0-2.93,2.2,1.25,1.25,0,0,0-.07.43v8.75a.85.85,0,0,0,.91.93,1.26,1.26,0,0,0,1.21-.62v-7.71H231V150a1.32,1.32,0,0,0,1.41,1.47c1.53,0,1.47-1.27,1.47-1.27V138.62h.62"/><circle class="cls-9" cx="234.28" cy="123.18" r="2.5"/><path class="cls-9" d="M211.7,126.34h4.83a3.16,3.16,0,0,1,2.93,2.21,1.14,1.14,0,0,1,.07.41v8.76a.85.85,0,0,1-.92.93c-1,0-1.2-.62-1.2-.62v-7.71h-.53V150a1.32,1.32,0,0,1-1.41,1.47c-1.53,0-1.47-1.27-1.47-1.27V138.62h-.62"/><path class="cls-9" d="M211.7,126.34h-1a3.16,3.16,0,0,0-2.93,2.2,1.25,1.25,0,0,0-.07.43v8.75a.86.86,0,0,0,.92.93c1,0,1.2-.62,1.2-.62v-7.71h.53V150a1.32,1.32,0,0,0,1.41,1.47c1.53,0,1.47-1.27,1.47-1.27V138.62h.62"/><circle class="cls-9" cx="213.67" cy="123.18" r="2.5"/><path class="cls-9" d="M170.49,126.34h4.82a3.17,3.17,0,0,1,2.94,2.21,1.41,1.41,0,0,1,.07.41v8.76a.86.86,0,0,1-.92.93,1.26,1.26,0,0,1-1.21-.62v-7.71h-.52V150a1.33,1.33,0,0,1-1.42,1.47c-1.53,0-1.47-1.27-1.47-1.27V138.62h-.61"/><path class="cls-9" d="M170.49,126.34h-1a3.16,3.16,0,0,0-2.93,2.2,1.26,1.26,0,0,0-.08.43v8.75a.86.86,0,0,0,.92.93,1.26,1.26,0,0,0,1.21-.62v-7.71h.53V150a1.32,1.32,0,0,0,1.41,1.47c1.53,0,1.47-1.27,1.47-1.27V138.62h.62"/><circle class="cls-9" cx="172.46" cy="123.18" r="2.5"/><path class="cls-9" d="M26.24,163.24h4.82a3.17,3.17,0,0,1,2.94,2.2,1.54,1.54,0,0,1,.07.42v8.76a.85.85,0,0,1-.92.92,1.26,1.26,0,0,1-1.21-.61v-7.71h-.53v19.7A1.32,1.32,0,0,1,30,188.39c-1.53,0-1.47-1.26-1.47-1.26V175.51h-.61"/><path class="cls-9" d="M26.24,163.24h-1a3.18,3.18,0,0,0-2.94,2.2,1.48,1.48,0,0,0-.07.42v8.76a.85.85,0,0,0,.92.92,1.26,1.26,0,0,0,1.21-.61v-7.71h.53v19.7a1.32,1.32,0,0,0,1.41,1.47c1.53,0,1.47-1.26,1.47-1.26V175.51h.62"/><circle class="cls-9" cx="28.21" cy="160.08" r="2.5"/><path class="cls-9" d="M46.85,163.24h4.82a3.18,3.18,0,0,1,2.94,2.2,1.52,1.52,0,0,1,.06.42v8.76a.84.84,0,0,1-.91.92,1.26,1.26,0,0,1-1.21-.61v-7.71H52v19.7a1.32,1.32,0,0,1-1.41,1.47c-1.53,0-1.47-1.26-1.47-1.26V175.51h-.62"/><path class="cls-9" d="M46.85,163.24h-1a3.17,3.17,0,0,0-2.94,2.2,1.2,1.2,0,0,0-.07.42v8.76a.85.85,0,0,0,.92.92c1,0,1.2-.61,1.2-.61v-7.71h.53v19.7a1.33,1.33,0,0,0,1.41,1.47c1.53,0,1.47-1.26,1.47-1.26V175.51H49"/><circle class="cls-9" cx="48.82" cy="160.08" r="2.5"/><path class="cls-9" d="M67.45,163.24h4.83a3.16,3.16,0,0,1,2.93,2.2,1.23,1.23,0,0,1,.07.42v8.76a.85.85,0,0,1-.92.92c-1,0-1.2-.61-1.2-.61v-7.71h-.53v19.7a1.32,1.32,0,0,1-1.41,1.47c-1.53,0-1.47-1.26-1.47-1.26V175.51h-.62"/><path class="cls-9" d="M67.45,163.24h-1a3.16,3.16,0,0,0-2.93,2.2,1.2,1.2,0,0,0-.07.42v8.76a.84.84,0,0,0,.92.92c1,0,1.2-.61,1.2-.61v-7.71h.53v19.7a1.32,1.32,0,0,0,1.41,1.47c1.53,0,1.47-1.26,1.47-1.26V175.51h.62"/><circle class="cls-9" cx="69.42" cy="160.08" r="2.5"/><path class="cls-9" d="M88.06,163.24h4.82a3.17,3.17,0,0,1,2.94,2.2,1.54,1.54,0,0,1,.07.42v8.76a.85.85,0,0,1-.92.92c-1,0-1.2-.61-1.2-.61v-7.71h-.53v19.7a1.33,1.33,0,0,1-1.42,1.47c-1.52,0-1.47-1.26-1.47-1.26V175.51h-.61"/><path class="cls-9" d="M88.06,163.24h-1a3.16,3.16,0,0,0-2.93,2.2,1.2,1.2,0,0,0-.07.42v8.76a.84.84,0,0,0,.91.92,1.26,1.26,0,0,0,1.21-.61v-7.71h.53v19.7a1.32,1.32,0,0,0,1.41,1.47c1.53,0,1.47-1.26,1.47-1.26V175.51h.62"/><circle class="cls-9" cx="90.03" cy="160.08" r="2.5"/><path class="cls-9" d="M108.67,163.24h4.82a3.17,3.17,0,0,1,2.94,2.2,1.54,1.54,0,0,1,.07.42v8.76a.85.85,0,0,1-.92.92,1.26,1.26,0,0,1-1.21-.61v-7.71h-.53v19.7a1.32,1.32,0,0,1-1.41,1.47c-1.53,0-1.47-1.26-1.47-1.26V175.51h-.62"/><path class="cls-9" d="M108.67,163.24h-1a3.18,3.18,0,0,0-2.94,2.2,1.48,1.48,0,0,0-.07.42v8.76a.85.85,0,0,0,.92.92,1.26,1.26,0,0,0,1.21-.61v-7.71h.52v19.7a1.33,1.33,0,0,0,1.42,1.47c1.53,0,1.47-1.26,1.47-1.26V175.51h.61"/><circle class="cls-9" cx="110.64" cy="160.08" r="2.5"/><path class="cls-9" d="M129.28,163.24h4.82a3.16,3.16,0,0,1,2.93,2.2,1.23,1.23,0,0,1,.07.42v8.76a.84.84,0,0,1-.91.92,1.26,1.26,0,0,1-1.21-.61v-7.71h-.53v19.7a1.32,1.32,0,0,1-1.41,1.47c-1.53,0-1.47-1.26-1.47-1.26V175.51H131"/><path class="cls-9" d="M129.28,163.24h-1a3.16,3.16,0,0,0-2.93,2.2,1.2,1.2,0,0,0-.07.42v8.76a.85.85,0,0,0,.92.92c1,0,1.2-.61,1.2-.61v-7.71H128v19.7a1.32,1.32,0,0,0,1.41,1.47c1.53,0,1.47-1.26,1.47-1.26V175.51h.62"/><circle class="cls-9" cx="131.25" cy="160.08" r="2.5"/><path class="cls-9" d="M149.88,163.24h4.83a3.16,3.16,0,0,1,2.93,2.2,1.23,1.23,0,0,1,.07.42v8.76a.85.85,0,0,1-.92.92c-1,0-1.2-.61-1.2-.61v-7.71h-.53v19.7a1.32,1.32,0,0,1-1.41,1.47c-1.53,0-1.47-1.26-1.47-1.26V175.51h-.62"/><path class="cls-9" d="M149.88,163.24h-1a3.16,3.16,0,0,0-2.93,2.2,1.2,1.2,0,0,0-.07.42v8.76a.84.84,0,0,0,.91.92,1.26,1.26,0,0,0,1.21-.61v-7.71h.53v19.7a1.32,1.32,0,0,0,1.41,1.47c1.53,0,1.47-1.26,1.47-1.26V175.51h.62"/><circle class="cls-9" cx="151.85" cy="160.08" r="2.5"/><path class="cls-9" d="M191.1,163.24h4.82a3.17,3.17,0,0,1,2.94,2.2,1.52,1.52,0,0,1,.06.42v8.76a.84.84,0,0,1-.91.92,1.26,1.26,0,0,1-1.21-.61v-7.71h-.53v19.7a1.32,1.32,0,0,1-1.41,1.47c-1.53,0-1.47-1.26-1.47-1.26V175.51h-.62"/><path class="cls-9" d="M191.1,163.24h-1a3.18,3.18,0,0,0-2.94,2.2,1.48,1.48,0,0,0-.07.42v8.76a.85.85,0,0,0,.92.92c1,0,1.2-.61,1.2-.61v-7.71h.53v19.7a1.33,1.33,0,0,0,1.42,1.47c1.52,0,1.47-1.26,1.47-1.26V175.51h.61"/><circle class="cls-9" cx="193.07" cy="160.08" r="2.5"/><path class="cls-9" d="M232.31,163.24h4.82a3.17,3.17,0,0,1,2.94,2.2,1.23,1.23,0,0,1,.07.42v8.76a.85.85,0,0,1-.92.92c-1,0-1.2-.61-1.2-.61v-7.71h-.53v19.7a1.33,1.33,0,0,1-1.41,1.47c-1.53,0-1.47-1.26-1.47-1.26V175.51H234"/><path class="cls-9" d="M232.31,163.24h-1a3.16,3.16,0,0,0-2.93,2.2,1.2,1.2,0,0,0-.07.42v8.76a.84.84,0,0,0,.91.92,1.26,1.26,0,0,0,1.21-.61v-7.71H231v19.7a1.32,1.32,0,0,0,1.41,1.47c1.53,0,1.47-1.26,1.47-1.26V175.51h.62"/><circle class="cls-9" cx="234.28" cy="160.08" r="2.5"/><path class="cls-9" d="M211.7,163.24h4.83a3.16,3.16,0,0,1,2.93,2.2,1.23,1.23,0,0,1,.07.42v8.76a.84.84,0,0,1-.92.92c-1,0-1.2-.61-1.2-.61v-7.71h-.53v19.7a1.32,1.32,0,0,1-1.41,1.47c-1.53,0-1.47-1.26-1.47-1.26V175.51h-.62"/><path class="cls-9" d="M211.7,163.24h-1a3.16,3.16,0,0,0-2.93,2.2,1.2,1.2,0,0,0-.07.42v8.76a.85.85,0,0,0,.92.92c1,0,1.2-.61,1.2-.61v-7.71h.53v19.7a1.32,1.32,0,0,0,1.41,1.47c1.53,0,1.47-1.26,1.47-1.26V175.51h.62"/><circle class="cls-9" cx="213.67" cy="160.08" r="2.5"/><path class="cls-9" d="M170.49,163.24h4.82a3.17,3.17,0,0,1,2.94,2.2,1.54,1.54,0,0,1,.07.42v8.76a.85.85,0,0,1-.92.92,1.26,1.26,0,0,1-1.21-.61v-7.71h-.52v19.7a1.33,1.33,0,0,1-1.42,1.47c-1.53,0-1.47-1.26-1.47-1.26V175.51h-.61"/><path class="cls-9" d="M170.49,163.24h-1a3.16,3.16,0,0,0-2.93,2.2,1.2,1.2,0,0,0-.08.42v8.76a.85.85,0,0,0,.92.92,1.26,1.26,0,0,0,1.21-.61v-7.71h.53v19.7a1.32,1.32,0,0,0,1.41,1.47c1.53,0,1.47-1.26,1.47-1.26V175.51h.62"/><circle class="cls-9" cx="172.46" cy="160.08" r="2.5"/><path class="cls-9" d="M26.24,199.35h4.82A3.17,3.17,0,0,1,34,201.56a1.41,1.41,0,0,1,.07.41v8.76a.86.86,0,0,1-.92.93,1.26,1.26,0,0,1-1.21-.62v-7.7h-.53V223A1.32,1.32,0,0,1,30,224.51c-1.53,0-1.47-1.26-1.47-1.26V211.63h-.61"/><path class="cls-9" d="M26.24,199.35h-1a3.18,3.18,0,0,0-2.94,2.2,1.61,1.61,0,0,0-.07.43v8.75a.86.86,0,0,0,.92.93,1.26,1.26,0,0,0,1.21-.62v-7.7h.53V223a1.32,1.32,0,0,0,1.41,1.47c1.53,0,1.47-1.26,1.47-1.26V211.63h.62"/><circle class="cls-9" cx="28.21" cy="196.2" r="2.5"/><path class="cls-9" d="M46.85,199.35h4.82a3.18,3.18,0,0,1,2.94,2.21,1.4,1.4,0,0,1,.06.41v8.76a.85.85,0,0,1-.91.93,1.26,1.26,0,0,1-1.21-.62v-7.7H52V223a1.32,1.32,0,0,1-1.41,1.47c-1.53,0-1.47-1.26-1.47-1.26V211.63h-.62"/><path class="cls-9" d="M46.85,199.35h-1a3.17,3.17,0,0,0-2.94,2.2,1.29,1.29,0,0,0-.07.43v8.75a.86.86,0,0,0,.92.93c1,0,1.2-.62,1.2-.62v-7.7h.53V223a1.33,1.33,0,0,0,1.41,1.47c1.53,0,1.47-1.26,1.47-1.26V211.63H49"/><circle class="cls-9" cx="48.82" cy="196.2" r="2.5"/><path class="cls-9" d="M67.45,199.35h4.83a3.16,3.16,0,0,1,2.93,2.21,1.14,1.14,0,0,1,.07.41v8.76a.86.86,0,0,1-.92.93c-1,0-1.2-.62-1.2-.62v-7.7h-.53V223a1.32,1.32,0,0,1-1.41,1.47c-1.53,0-1.47-1.26-1.47-1.26V211.63h-.62"/><path class="cls-9" d="M67.45,199.35h-1a3.16,3.16,0,0,0-2.93,2.2,1.29,1.29,0,0,0-.07.43v8.75a.85.85,0,0,0,.92.93c1,0,1.2-.62,1.2-.62v-7.7h.53V223a1.32,1.32,0,0,0,1.41,1.47c1.53,0,1.47-1.26,1.47-1.26V211.63h.62"/><circle class="cls-9" cx="69.42" cy="196.2" r="2.5"/><path class="cls-9" d="M88.06,199.35h4.82a3.17,3.17,0,0,1,2.94,2.21,1.41,1.41,0,0,1,.07.41v8.76a.86.86,0,0,1-.92.93c-1,0-1.2-.62-1.2-.62v-7.7h-.53V223a1.33,1.33,0,0,1-1.42,1.47c-1.52,0-1.47-1.26-1.47-1.26V211.63h-.61"/><path class="cls-9" d="M88.06,199.35h-1a3.16,3.16,0,0,0-2.93,2.2,1.29,1.29,0,0,0-.07.43v8.75a.85.85,0,0,0,.91.93,1.26,1.26,0,0,0,1.21-.62v-7.7h.53V223a1.32,1.32,0,0,0,1.41,1.47c1.53,0,1.47-1.26,1.47-1.26V211.63h.62"/><circle class="cls-9" cx="90.03" cy="196.2" r="2.5"/><path class="cls-9" d="M108.67,199.35h4.82a3.17,3.17,0,0,1,2.94,2.21,1.41,1.41,0,0,1,.07.41v8.76a.86.86,0,0,1-.92.93,1.26,1.26,0,0,1-1.21-.62v-7.7h-.53V223a1.32,1.32,0,0,1-1.41,1.47c-1.53,0-1.47-1.26-1.47-1.26V211.63h-.62"/><path class="cls-9" d="M108.67,199.35h-1a3.18,3.18,0,0,0-2.94,2.2,1.61,1.61,0,0,0-.07.43v8.75a.86.86,0,0,0,.92.93,1.26,1.26,0,0,0,1.21-.62v-7.7h.52V223a1.33,1.33,0,0,0,1.42,1.47c1.53,0,1.47-1.26,1.47-1.26V211.63h.61"/><circle class="cls-9" cx="110.64" cy="196.2" r="2.5"/><path class="cls-9" d="M129.28,199.35h4.82a3.16,3.16,0,0,1,2.93,2.21,1.14,1.14,0,0,1,.07.41v8.76a.85.85,0,0,1-.91.93A1.26,1.26,0,0,1,135,211v-7.7h-.53V223a1.32,1.32,0,0,1-1.41,1.47c-1.53,0-1.47-1.26-1.47-1.26V211.63H131"/><path class="cls-9" d="M129.28,199.35h-1a3.16,3.16,0,0,0-2.93,2.2,1.29,1.29,0,0,0-.07.43v8.75a.86.86,0,0,0,.92.93c1,0,1.2-.62,1.2-.62v-7.7H128V223a1.32,1.32,0,0,0,1.41,1.47c1.53,0,1.47-1.26,1.47-1.26V211.63h.62"/><circle class="cls-9" cx="131.25" cy="196.2" r="2.5"/><path class="cls-9" d="M149.88,199.35h4.83a3.16,3.16,0,0,1,2.93,2.21,1.14,1.14,0,0,1,.07.41v8.76a.86.86,0,0,1-.92.93c-1,0-1.2-.62-1.2-.62v-7.7h-.53V223a1.32,1.32,0,0,1-1.41,1.47c-1.53,0-1.47-1.26-1.47-1.26V211.63h-.62"/><path class="cls-9" d="M149.88,199.35h-1a3.16,3.16,0,0,0-2.93,2.2,1.29,1.29,0,0,0-.07.43v8.75a.85.85,0,0,0,.91.93A1.26,1.26,0,0,0,148,211v-7.7h.53V223a1.32,1.32,0,0,0,1.41,1.47c1.53,0,1.47-1.26,1.47-1.26V211.63h.62"/><circle class="cls-9" cx="151.85" cy="196.2" r="2.5"/><path class="cls-9" d="M191.1,199.35h4.82a3.17,3.17,0,0,1,2.94,2.21,1.4,1.4,0,0,1,.06.41v8.76a.85.85,0,0,1-.91.93,1.26,1.26,0,0,1-1.21-.62v-7.7h-.53V223a1.32,1.32,0,0,1-1.41,1.47c-1.53,0-1.47-1.26-1.47-1.26V211.63h-.62"/><path class="cls-9" d="M191.1,199.35h-1a3.18,3.18,0,0,0-2.94,2.2,1.61,1.61,0,0,0-.07.43v8.75a.86.86,0,0,0,.92.93c1,0,1.2-.62,1.2-.62v-7.7h.53V223a1.33,1.33,0,0,0,1.42,1.47c1.52,0,1.47-1.26,1.47-1.26V211.63h.61"/><circle class="cls-9" cx="193.07" cy="196.2" r="2.5"/><path class="cls-9" d="M232.31,199.35h4.82a3.17,3.17,0,0,1,2.94,2.21,1.14,1.14,0,0,1,.07.41v8.76a.86.86,0,0,1-.92.93c-1,0-1.2-.62-1.2-.62v-7.7h-.53V223a1.33,1.33,0,0,1-1.41,1.47c-1.53,0-1.47-1.26-1.47-1.26V211.63H234"/><path class="cls-9" d="M232.31,199.35h-1a3.16,3.16,0,0,0-2.93,2.2,1.29,1.29,0,0,0-.07.43v8.75a.85.85,0,0,0,.91.93,1.26,1.26,0,0,0,1.21-.62v-7.7H231V223a1.32,1.32,0,0,0,1.41,1.47c1.53,0,1.47-1.26,1.47-1.26V211.63h.62"/><circle class="cls-9" cx="234.28" cy="196.2" r="2.5"/><path class="cls-9" d="M211.7,199.35h4.83a3.16,3.16,0,0,1,2.93,2.21,1.14,1.14,0,0,1,.07.41v8.76a.85.85,0,0,1-.92.93c-1,0-1.2-.62-1.2-.62v-7.7h-.53V223a1.32,1.32,0,0,1-1.41,1.47c-1.53,0-1.47-1.26-1.47-1.26V211.63h-.62"/><path class="cls-9" d="M211.7,199.35h-1a3.16,3.16,0,0,0-2.93,2.2,1.29,1.29,0,0,0-.07.43v8.75a.86.86,0,0,0,.92.93c1,0,1.2-.62,1.2-.62v-7.7h.53V223a1.32,1.32,0,0,0,1.41,1.47c1.53,0,1.47-1.26,1.47-1.26V211.63h.62"/><circle class="cls-9" cx="213.67" cy="196.2" r="2.5"/><path class="cls-9" d="M170.49,199.35h4.82a3.17,3.17,0,0,1,2.94,2.21,1.41,1.41,0,0,1,.07.41v8.76a.86.86,0,0,1-.92.93,1.26,1.26,0,0,1-1.21-.62v-7.7h-.52V223a1.33,1.33,0,0,1-1.42,1.47c-1.53,0-1.47-1.26-1.47-1.26V211.63h-.61"/><path class="cls-9" d="M170.49,199.35h-1a3.16,3.16,0,0,0-2.93,2.2,1.31,1.31,0,0,0-.08.43v8.75a.86.86,0,0,0,.92.93,1.26,1.26,0,0,0,1.21-.62v-7.7h.53V223a1.32,1.32,0,0,0,1.41,1.47c1.53,0,1.47-1.26,1.47-1.26V211.63h.62"/><circle class="cls-9" cx="172.46" cy="196.2" r="2.5"/><path class="cls-9" d="M26.24,235.47h4.82A3.17,3.17,0,0,1,34,237.68a1.41,1.41,0,0,1,.07.41v8.76a.86.86,0,0,1-.92.93,1.26,1.26,0,0,1-1.21-.62v-7.7h-.53v19.7A1.32,1.32,0,0,1,30,260.63c-1.53,0-1.47-1.27-1.47-1.27V247.75h-.61"/><path class="cls-9" d="M26.24,235.47h-1a3.18,3.18,0,0,0-2.94,2.2,1.55,1.55,0,0,0-.07.43v8.75a.86.86,0,0,0,.92.93,1.26,1.26,0,0,0,1.21-.62v-7.7h.53v19.7a1.32,1.32,0,0,0,1.41,1.47c1.53,0,1.47-1.27,1.47-1.27V247.75h.62"/><circle class="cls-9" cx="28.21" cy="232.32" r="2.5"/><path class="cls-9" d="M46.85,235.47h4.82a3.18,3.18,0,0,1,2.94,2.21,1.4,1.4,0,0,1,.06.41v8.76a.85.85,0,0,1-.91.93,1.26,1.26,0,0,1-1.21-.62v-7.7H52v19.7a1.32,1.32,0,0,1-1.41,1.47c-1.53,0-1.47-1.27-1.47-1.27V247.75h-.62"/><path class="cls-9" d="M46.85,235.47h-1a3.17,3.17,0,0,0-2.94,2.2,1.25,1.25,0,0,0-.07.43v8.75a.86.86,0,0,0,.92.93c1,0,1.2-.62,1.2-.62v-7.7h.53v19.7a1.33,1.33,0,0,0,1.41,1.47c1.53,0,1.47-1.27,1.47-1.27V247.75H49"/><circle class="cls-9" cx="48.82" cy="232.32" r="2.5"/><path class="cls-9" d="M67.45,235.47h4.83a3.16,3.16,0,0,1,2.93,2.21,1.14,1.14,0,0,1,.07.41v8.76a.86.86,0,0,1-.92.93c-1,0-1.2-.62-1.2-.62v-7.7h-.53v19.7a1.32,1.32,0,0,1-1.41,1.47c-1.53,0-1.47-1.27-1.47-1.27V247.75h-.62"/><path class="cls-9" d="M67.45,235.47h-1a3.16,3.16,0,0,0-2.93,2.2,1.25,1.25,0,0,0-.07.43v8.75a.85.85,0,0,0,.92.93c1,0,1.2-.62,1.2-.62v-7.7h.53v19.7a1.32,1.32,0,0,0,1.41,1.47c1.53,0,1.47-1.27,1.47-1.27V247.75h.62"/><circle class="cls-9" cx="69.42" cy="232.32" r="2.5"/><path class="cls-9" d="M88.06,235.47h4.82a3.17,3.17,0,0,1,2.94,2.21,1.41,1.41,0,0,1,.07.41v8.76a.86.86,0,0,1-.92.93c-1,0-1.2-.62-1.2-.62v-7.7h-.53v19.7a1.33,1.33,0,0,1-1.42,1.47c-1.52,0-1.47-1.27-1.47-1.27V247.75h-.61"/><path class="cls-9" d="M88.06,235.47h-1a3.16,3.16,0,0,0-2.93,2.2,1.25,1.25,0,0,0-.07.43v8.75a.85.85,0,0,0,.91.93,1.26,1.26,0,0,0,1.21-.62v-7.7h.53v19.7a1.32,1.32,0,0,0,1.41,1.47c1.53,0,1.47-1.27,1.47-1.27V247.75h.62"/><circle class="cls-9" cx="90.03" cy="232.32" r="2.5"/><rect class="cls-16" x="40.26" y="35.15" width="24.79" height="3.69"/><rect class="cls-16" x="67.55" y="35.15" width="24.79" height="3.69"/><rect class="cls-16" x="94.83" y="35.15" width="24.79" height="3.69"/><rect class="cls-16" x="122.11" y="35.15" width="24.79" height="3.69"/><rect class="cls-16" x="149.39" y="35.15" width="24.79" height="3.69"/><rect class="cls-16" x="176.67" y="35.15" width="24.79" height="3.69"/><rect class="cls-17" x="203.95" y="35.15" width="24.79" height="3.69"/><text class="cls-18" transform="translate(207.93 32.01)"><tspan class="cls-19">S</tspan><tspan class="cls-20" x="3.99" y="0">ep</tspan><tspan class="cls-21" x="12.55" y="0">t</tspan><tspan x="15.18" y="0">.</tspan></text></g></svg>